<svg width="31" height="23" viewBox="0 0 31 23" fill="none" xmlns="http://www.w3.org/2000/svg">
<g clip-path="url(#clip0)">
<path fill-rule="evenodd" clip-rule="evenodd" d="M1.27585 1.38364C1.08449 1.84094 0.829346 2.49423 0.829346 3.01686C0.829346 3.21285 1.08449 3.27818 1.14828 3.08219C1.27585 2.88621 1.27585 2.55956 1.40342 2.29824C1.46721 2.03693 1.53099 1.77561 1.65856 1.44897C1.72235 1.18765 1.33963 1.12232 1.27585 1.38364Z" fill="#FF6000"/>
<path fill-rule="evenodd" clip-rule="evenodd" d="M2.23251 0.795687C2.04115 1.38365 1.72222 1.97161 1.59464 2.55957C1.53086 2.82089 1.84979 2.95154 1.97736 2.75556C2.29629 2.1676 2.48765 1.44898 2.67901 0.861016C2.74279 0.5997 2.36008 0.534371 2.23251 0.795687Z" fill="#FF6000"/>
<path fill-rule="evenodd" clip-rule="evenodd" d="M11.7367 17.8462C11.4816 18.3688 11.2902 18.8914 11.0351 19.3487C10.8437 19.8061 10.5886 20.2634 10.461 20.7207C10.3972 20.9166 10.7161 21.1126 10.8437 20.9166C11.1626 20.5247 11.2902 20.002 11.4816 19.5447C11.6729 19.0221 11.9281 18.4995 12.1194 17.9768C12.247 17.7809 11.8643 17.5195 11.7367 17.8462Z" fill="#FF6000"/>
<path fill-rule="evenodd" clip-rule="evenodd" d="M12.8848 17.8464C12.5659 18.565 12.247 19.2836 11.928 20.0676C11.6729 20.7209 11.2902 21.4395 11.2264 22.1581C11.1626 22.4194 11.5453 22.6154 11.7367 22.3541C12.0556 21.7661 12.247 20.9822 12.5021 20.3289C12.7572 19.6103 13.0762 18.8263 13.3951 18.1077C13.5227 17.7811 13.0762 17.5198 12.8848 17.8464Z" fill="#FF6000"/>
<path fill-rule="evenodd" clip-rule="evenodd" d="M14.0329 18.5651C13.6502 19.4797 13.1399 20.4597 12.8848 21.5049C12.821 21.7662 13.2037 21.9622 13.3313 21.7009C13.8416 20.8516 14.1605 19.8064 14.4794 18.8918C14.607 18.4998 14.1605 18.2385 14.0329 18.5651Z" fill="#FF6000"/>
<path fill-rule="evenodd" clip-rule="evenodd" d="M22.1975 17.8466C21.6872 19.1532 20.9218 20.4598 20.6028 21.8317C20.539 22.093 20.858 22.2236 20.9855 21.9623C21.6872 20.7864 22.0699 19.3492 22.5802 18.0426C22.7078 17.7813 22.2613 17.5853 22.1975 17.8466Z" fill="#FF6000"/>
<path fill-rule="evenodd" clip-rule="evenodd" d="M23.6647 17.7808C23.0268 19.0874 22.2614 20.5247 21.9425 21.9619C21.8787 22.2232 22.2614 22.4192 22.389 22.1579C23.0268 20.786 23.4733 19.3487 24.1112 18.0422C24.2388 17.7155 23.7923 17.4542 23.6647 17.7808Z" fill="#FF6000"/>
<path fill-rule="evenodd" clip-rule="evenodd" d="M24.6213 18.9572C24.2386 20.0678 23.7283 21.1784 23.4094 22.289C23.3456 22.5503 23.7283 22.681 23.8559 22.485C24.3662 21.4397 24.6851 20.1985 25.0678 19.0879C25.1954 18.7612 24.7489 18.6959 24.6213 18.9572Z" fill="#FF6000"/>
<path fill-rule="evenodd" clip-rule="evenodd" d="M6.50613 5.23835C6.25099 5.76098 5.86827 6.28361 5.67691 6.80624C5.61313 7.06756 5.99584 7.26355 6.12342 7.06756C6.50613 6.61026 6.76128 6.08763 7.01642 5.56499C7.27156 5.17302 6.69749 4.9117 6.50613 5.23835Z" fill="#EAF0F4"/>
<path fill-rule="evenodd" clip-rule="evenodd" d="M8.41987 4.71521C7.59065 5.8258 6.76143 7.00172 6.18736 8.24297C5.996 8.56962 6.50629 8.83093 6.69764 8.50429C7.39929 7.3937 8.03715 6.21777 8.86637 5.10718C9.05773 4.84586 8.61123 4.45389 8.41987 4.71521Z" fill="#EAF0F4"/>
<path fill-rule="evenodd" clip-rule="evenodd" d="M9.69565 5.10718C8.41993 6.80573 6.95285 8.70027 6.18742 10.7255C6.05985 10.9868 6.50635 11.2481 6.69771 10.9868C7.97343 9.22291 8.93022 7.19771 10.1422 5.43382C10.3335 5.17251 9.88701 4.84586 9.69565 5.10718Z" fill="#EAF0F4"/>
<path fill-rule="evenodd" clip-rule="evenodd" d="M11.2901 5.23794C10.0144 7.32847 8.48352 9.41899 7.46294 11.6402C7.33537 11.9015 7.71809 12.2935 7.90945 11.9668C9.37652 9.94163 10.5247 7.65511 11.8004 5.49926C11.9918 5.17261 11.4815 4.91129 11.2901 5.23794Z" fill="#EAF0F4"/>
<path fill-rule="evenodd" clip-rule="evenodd" d="M13.5864 4.97665C11.609 7.7858 9.05757 10.9216 7.84564 14.188C7.78185 14.4494 8.10078 14.6453 8.29214 14.4494C9.3765 13.1428 10.1419 11.5095 10.9712 10.0723C11.9917 8.43909 13.0123 6.87119 14.0329 5.23796C14.288 4.97665 13.7777 4.71533 13.5864 4.97665Z" fill="#EAF0F4"/>
<path fill-rule="evenodd" clip-rule="evenodd" d="M15.1812 4.64999C13.3952 7.98177 11.4816 11.3135 9.75935 14.7107C9.56799 15.1026 10.1421 15.4946 10.3972 15.0373C12.247 11.7055 13.9054 8.24309 15.6914 4.84598C15.819 4.58466 15.3725 4.32335 15.1812 4.64999Z" fill="#EAF0F4"/>
<path fill-rule="evenodd" clip-rule="evenodd" d="M17.2222 4.97695C15.4362 8.30873 13.6502 11.5752 11.9918 14.907C11.8004 15.2989 12.3745 15.6256 12.5658 15.2336C14.3518 11.9018 16.0103 8.57005 17.6687 5.23827C17.7963 4.91162 17.3498 4.65031 17.2222 4.97695Z" fill="#EAF0F4"/>
<path fill-rule="evenodd" clip-rule="evenodd" d="M19.1995 4.91132C17.5411 8.30843 15.5637 11.5749 14.0328 14.972C13.8415 15.364 14.4156 15.6906 14.6707 15.2986C16.6481 12.1628 18.2427 8.56974 19.7736 5.23796C19.9649 4.84599 19.3909 4.51934 19.1995 4.91132Z" fill="#EAF0F4"/>
<path fill-rule="evenodd" clip-rule="evenodd" d="M21.1132 4.97695C19.6462 8.17808 17.7964 11.5099 16.8396 14.907C16.7758 15.2336 17.2223 15.4296 17.3499 15.103C19.0721 12.0325 20.2202 8.50472 21.6235 5.23827C21.7511 4.91162 21.2408 4.65031 21.1132 4.97695Z" fill="#EAF0F4"/>
<path fill-rule="evenodd" clip-rule="evenodd" d="M23.282 4.91134C21.8787 8.24312 20.3478 11.5096 19.0721 14.8413C18.9445 15.2333 19.5824 15.4946 19.7737 15.1027C21.2408 11.8362 22.5165 8.50444 23.856 5.17266C23.9198 4.84601 23.4733 4.5847 23.282 4.91134Z" fill="#EAF0F4"/>
<path fill-rule="evenodd" clip-rule="evenodd" d="M25.3231 5.04212C23.7285 8.17791 22.07 11.4444 20.9857 14.8415C20.8581 15.1681 21.4322 15.4294 21.5597 15.1028C23.0906 11.9017 24.3025 8.56989 25.8334 5.36877C25.961 4.97679 25.5145 4.71548 25.3231 5.04212Z" fill="#EAF0F4"/>
<path fill-rule="evenodd" clip-rule="evenodd" d="M27.2366 4.64991C25.7695 7.91636 24.0473 11.1175 22.963 14.5146C22.8354 14.8412 23.4095 15.0372 23.537 14.7759C25.1955 11.6401 26.4074 8.243 27.7469 4.97655C27.8107 4.58458 27.3642 4.32326 27.2366 4.64991Z" fill="#EAF0F4"/>
<path fill-rule="evenodd" clip-rule="evenodd" d="M28.6398 5.17273C27.3003 8.30852 25.8333 11.379 24.7489 14.5801C24.6213 14.9721 25.1954 15.1681 25.3868 14.8414C26.8538 11.8363 27.9382 8.56984 29.2139 5.49938C29.3415 5.1074 28.8312 4.78076 28.6398 5.17273Z" fill="#EAF0F4"/>
<path fill-rule="evenodd" clip-rule="evenodd" d="M27.3006 18.8267C26.9816 18.8267 26.6627 18.8267 26.4076 18.8267C26.1524 18.8267 25.8973 18.8267 25.6421 18.892C25.4508 18.3041 25.0681 17.7161 24.494 17.3241C24.4302 17.1935 24.3664 17.1281 24.2388 17.0628C24.1113 16.9975 23.9199 16.9975 23.7923 16.9322C23.7286 16.9322 23.7286 16.9322 23.6648 16.8668C23.601 16.8668 23.5372 16.8668 23.4734 16.8668C22.1977 16.7362 20.9858 17.4548 20.4755 18.7614C20.4755 18.8267 20.4117 18.8267 20.4117 18.892C19.5187 18.892 18.5619 18.892 17.6689 18.8267C16.9035 18.8267 16.0742 18.696 15.3088 19.0227C15.1174 18.3041 14.6072 17.5855 13.9055 17.1935C13.8417 17.1281 13.7142 17.1281 13.6504 17.1281C12.8212 16.5402 11.4179 16.9322 10.5886 17.6508C10.2697 17.9774 10.0146 18.3694 9.88699 18.7614C9.75942 18.7614 9.63185 18.7614 9.50428 18.8267C8.80263 19.1533 7.97341 19.0227 7.65448 18.1081C7.46313 17.5201 7.78206 16.7362 7.90963 16.1482C7.97341 15.9522 7.97341 15.6909 8.0372 15.4949C10.8438 15.5603 13.5866 15.6256 16.3932 15.6909C17.7965 15.6909 19.1998 15.7562 20.603 15.7562C21.8788 15.7562 23.2183 15.8869 24.494 15.7562C26.4714 15.4949 27.6833 14.0577 28.4487 12.2938C29.5331 9.94196 30.3623 7.39413 31.0002 4.8463C31.0639 4.51965 30.8088 4.19301 30.4899 4.19301C22.0701 4.12768 13.6504 4.12768 5.23062 4.19301C5.16683 4.19301 5.16683 4.19301 5.16683 4.19301C4.46518 3.40906 3.69975 2.69044 2.80675 2.10248C2.61539 2.42912 2.36025 2.75577 2.1051 3.01708C3.44461 3.86636 4.46518 5.3036 5.23062 6.74084C6.25119 8.70071 6.95284 10.8566 7.01662 13.0124C7.08041 14.0577 6.95284 15.0376 6.76148 16.0829C6.57012 16.9975 6.25119 17.8468 6.63391 18.7614C7.1442 20.0026 8.54749 20.4599 9.69564 20.0026C9.75942 20.6559 10.0146 21.3092 10.4611 21.7665C11.6092 22.9424 13.7779 22.7464 14.7985 21.4399C15.1174 20.9826 15.3088 20.4599 15.3726 19.9373C16.9672 19.872 18.6257 19.872 20.2203 19.8066C20.1565 21.0479 20.8582 22.3545 22.1339 22.7464C23.6648 23.2691 25.2594 22.0932 25.7059 20.5906C25.7697 20.3293 25.8335 20.068 25.8335 19.8066C26.0249 19.8066 26.28 19.8066 26.4714 19.8066C26.7903 19.8066 27.1092 19.7413 27.3644 19.7413C27.8746 19.7413 27.8746 18.8267 27.3006 18.8267ZM27.8746 10.9872C27.4919 10.5299 27.0454 10.0726 26.6627 9.68064C27.6195 8.57005 28.5763 7.45946 29.5331 6.28353C29.0866 7.91676 28.5125 9.48466 27.8746 10.9872ZM26.2162 9.22334C25.3232 8.37406 24.4302 7.59011 23.4734 6.80617C23.9199 6.28353 24.3664 5.82623 24.8129 5.3036C26.4076 5.3036 28.066 5.3036 29.6607 5.3036C28.4487 6.61018 27.3644 7.91676 26.2162 9.22334ZM22.9631 6.41419C22.5166 6.02222 22.0701 5.69557 21.5598 5.3036C22.3253 5.3036 23.1545 5.3036 23.9199 5.3036C23.6648 5.63024 23.2821 6.02222 22.9631 6.41419ZM20.4755 5.3036C21.1771 5.82623 21.815 6.41419 22.4528 7.00215C21.6874 7.85143 20.8582 8.76604 20.0928 9.61531C19.2635 8.76604 18.3705 7.85143 17.4775 7.00215C17.9878 6.41419 18.5619 5.82623 19.0722 5.3036H20.4755ZM22.8993 7.39413C23.7923 8.2434 24.6853 9.02735 25.5784 9.87663C24.7491 10.7912 23.9199 11.7058 23.0907 12.6204C22.2615 11.7712 21.4323 10.9219 20.5393 10.0726C21.3685 9.15801 22.1339 8.30873 22.8993 7.39413ZM26.0886 10.3339C26.5989 10.7912 27.1092 11.2485 27.5557 11.7058C27.2368 12.5551 26.7903 13.4044 26.1524 14.0577C25.8335 14.3843 25.4508 14.5803 25.0681 14.711C24.5578 14.1883 24.1113 13.731 23.601 13.2084C24.4302 12.2285 25.2594 11.3139 26.0886 10.3339ZM18.243 5.3036C17.8602 5.69557 17.4137 6.15288 17.031 6.54485C16.5845 6.15288 16.2018 5.69557 15.7553 5.3036H18.243ZM14.9261 5.3036C15.5002 5.89156 16.0742 6.47952 16.5845 7.00215C15.6915 7.98209 14.7347 8.89669 13.8417 9.87663C13.0763 9.09268 12.3109 8.30873 11.6092 7.45946L13.6504 5.3036H14.9261ZM11.1627 7.00215C10.5886 6.41419 10.0784 5.82623 9.50428 5.23827C10.5886 5.23827 11.673 5.23827 12.7574 5.23827L11.1627 7.00215ZM8.67506 5.3036C9.37671 6.02222 10.0784 6.80617 10.7162 7.52479L8.54749 9.8113L7.08041 8.2434C6.76148 7.26347 6.31498 6.21821 5.7409 5.23827C6.69769 5.23827 7.65448 5.3036 8.67506 5.3036ZM11.0989 7.98209C11.8644 8.76604 12.566 9.61531 13.3314 10.3993C12.6298 11.1832 11.8644 11.9018 11.1627 12.6858L8.99399 10.2686L11.0989 7.98209ZM7.5907 9.61531L8.16477 10.2686L7.84584 10.5952C7.78206 10.2686 7.65448 9.94196 7.5907 9.61531ZM8.61127 10.7259L10.78 13.1431C10.2697 13.6657 9.82321 14.1883 9.31292 14.711C8.9302 14.711 8.54749 14.711 8.10099 14.711C8.10099 14.4497 8.16477 14.2537 8.16477 13.9924C8.16477 13.1431 8.10099 12.2938 7.97341 11.4445L8.61127 10.7259ZM10.2059 14.6456C10.5249 14.319 10.8438 13.9924 11.2265 13.6004C11.5454 13.927 11.8644 14.319 12.1833 14.6456C11.5454 14.6456 10.8438 14.6456 10.2059 14.6456ZM13.0125 14.711C12.566 14.1883 12.1195 13.731 11.6092 13.2084C12.3109 12.4245 13.0763 11.7058 13.7779 10.9219C14.6709 11.9018 15.5002 12.8164 16.3932 13.731C16.0742 14.0577 15.8191 14.3843 15.5002 14.711C14.7347 14.711 13.8417 14.711 13.0125 14.711ZM16.9035 14.1883C17.0948 14.3843 17.2862 14.5803 17.4775 14.7763H16.3932C16.5207 14.5803 16.7121 14.3843 16.9035 14.1883ZM18.4343 14.7763C18.0516 14.3843 17.7327 13.9924 17.35 13.6004C18.243 12.5551 19.1998 11.5752 20.0928 10.5299C20.922 11.3792 21.7512 12.2285 22.5804 13.0778C22.0701 13.6657 21.5598 14.1883 21.0495 14.7763C20.2203 14.8416 19.3273 14.8416 18.4343 14.7763ZM16.9672 13.1431C16.0742 12.2285 15.245 11.2485 14.352 10.3339C15.245 9.354 16.2018 8.37406 17.0948 7.45946C17.924 8.30873 18.817 9.22334 19.6463 10.0726C18.7532 11.1179 17.8602 12.1631 16.9672 13.1431ZM23.0907 13.6657C23.4734 14.0577 23.8561 14.4497 24.2388 14.8416C23.7286 14.907 23.1545 14.907 22.6442 14.907H22.0063C22.3253 14.4497 22.708 14.0577 23.0907 13.6657ZM11.3541 21.1132C10.7162 20.5906 10.5249 19.676 10.9076 18.9574C11.1627 18.4347 12.5022 17.4548 13.0763 17.9774C13.0763 18.0428 13.1401 18.1081 13.2039 18.1734C13.2677 18.3694 13.459 18.5001 13.6504 18.5001C15.245 19.872 13.0763 22.4851 11.3541 21.1132ZM24.6216 20.068C24.494 21.0479 23.5372 22.0932 22.4528 21.7665C21.4323 21.5052 21.0495 20.2639 21.3047 19.3493C21.5598 18.4347 22.3253 17.9774 23.2183 17.9774C24.0475 18.3694 24.7491 19.0227 24.6216 20.068Z" fill="#2B3A42"/>
<path fill-rule="evenodd" clip-rule="evenodd" d="M3.31504 0.666418C2.80475 -0.117531 1.72039 0.0784566 1.08253 0.666418C0.444673 1.18905 -0.320759 2.16899 0.125743 3.01826C0.636031 3.93287 1.78418 3.60622 2.42204 3.01826C2.48583 3.01826 2.54961 2.95293 2.54961 2.95293C3.25126 2.4303 3.82533 1.51569 3.31504 0.666418ZM0.954961 2.49563C0.763603 2.23431 1.40146 1.51569 1.59282 1.31971C1.84797 1.05839 2.54961 0.666418 2.67718 1.31971C2.74097 1.64635 2.54961 1.973 2.29447 2.23431C2.29447 2.23431 2.29447 2.23431 2.23068 2.23431C1.97554 2.29964 1.14632 2.82228 0.954961 2.49563Z" fill="#2B3A42"/>
</g>
<defs>
<clipPath id="clip0">
<rect width="31" height="22.7998" fill="white" transform="translate(0 0.142334)"/>
</clipPath>
</defs>
</svg>
