<?xml version="1.0" encoding="utf-8"?>
<!-- Generator: Adobe Illustrator 25.2.1, SVG Export Plug-In . SVG Version: 6.00 Build 0)  -->
<svg version="1.1" id="Layer_1" xmlns="http://www.w3.org/2000/svg" xmlns:xlink="http://www.w3.org/1999/xlink" x="0px" y="0px"
	 viewBox="0 0 1000 1000" style="enable-background:new 0 0 1000 1000;" xml:space="preserve">
<style type="text/css">
	.st0{clip-path:url(#SVGID_2_);fill-rule:evenodd;clip-rule:evenodd;fill:#FF6000;}
	.st1{fill:#2B3942;}
</style>
<g>
	<g>
		<defs>
			<path id="SVGID_1_" d="M369.1,701.2l34,34c9.2,9.2,21.5,14.3,34.5,14.3c13,0,25.3-5.1,34.5-14.3L735.2,472c19-19,19-50,0-69
				l-34-34l-70.3-70.3l-34-34c-9.2-9.2-21.5-14.3-34.5-14.3s-25.3,5.1-34.5,14.3L264.8,528c-19,19-19,50,0,69l34,34L369.1,701.2z"/>
		</defs>
		<clipPath id="SVGID_2_">
			<use xlink:href="#SVGID_1_"  style="overflow:visible;"/>
		</clipPath>
		<path class="st0" d="M306.3,91.1c-9,19-20.1,38-29,57c-9,19-21.6,34.2-29,57c-4.2,15.2-0.6,34.2,9.4,22.8
			c12.6-15.2,21.6-34.2,30.6-53.2c11.1-19,20.6-41.8,32.2-64.6C331.5,91.1,315.3,72.2,306.3,91.1z"/>
		<path class="st0" d="M352.4,106.3c-40.1,76-89.2,155.7-122.5,243c-6.3,15.2,1.5,34.2,12,19c45.3-68.4,83.9-163.3,124.6-243
			C375.5,106.3,360.8,91.1,352.4,106.3z"/>
		<path class="st0" d="M385.3,125.3c-62.3,113.9-129.8,235.4-181.7,364.6c-9.5,22.8,5.1,38,16.2,19
			C282.7,391.1,338.7,262,401.5,144.3C410.5,125.3,396.4,106.3,385.3,125.3z"/>
		<path class="st0" d="M433.6,125.3c-80.3,167.1-164.2,330.4-236.7,501.3c-9.5,22.8,5.1,38,16.2,19
			c83.4-159.5,158.5-334.2,234.6-501.3C456.7,125.3,442.6,106.3,433.6,125.3z"/>
		<path class="st0" d="M476.6,117.7C380.9,334.2,278,543,178.1,759.5c-9.5,22.8,5.1,38,16.2,19C300.9,573.4,395,353.2,489.1,132.9
			C498.1,113.9,485.6,98.7,476.6,117.7z"/>
		<path class="st0" d="M515.4,125.3c-102,231.7-210.3,463.3-305,702.5c-9.5,22.8,5.1,38,16.2,19C333.8,622.8,429.6,376,530,140.5
			C536.9,121.5,524.4,106.3,515.4,125.3z"/>
		<path class="st0" d="M563.1,129.1c-57.5,110.1-106.2,231.6-154.9,353.2c-24.8,57-47.6,113.9-72.4,170.9
			c-27.5,60.8-58.6,117.7-81.9,178.5c-6.3,15.2,2,30.4,12,19c62.2-83.5,112-227.9,156.9-338C474.1,387.4,523.3,262,581.9,144.3
			C588.8,125.3,572.6,106.3,563.1,129.1z"/>
		<path class="st0" d="M611.4,113.9C514,357,415.1,596.2,317.8,839.3c-9.5,22.8,8.2,45.6,18.3,19c97.3-243,194.7-486.1,292-729.1
			C635,110.1,620.4,94.9,611.4,113.9z"/>
		<path class="st0" d="M652.3,106.3c-92.6,239.2-184.2,486.1-284.6,721.5c-9,19,4,45.6,15.6,22.8c53.8-98.7,95.2-227.9,138-338
			c49.7-129.1,97.4-258.2,147.1-387.3C675.9,102.5,659.7,83.5,652.3,106.3z"/>
		<path class="st0" d="M702.7,91.1c-91,243-184.2,486.1-279.4,729.1c-10.1,26.6,7.7,49.4,17.7,22.8C538.3,600,629.4,357,717.3,106.3
			C724.2,87.3,709.6,72.2,702.7,91.1z"/>
		<path class="st0" d="M748.8,91.1c-49.7,129.1-99.5,258.2-149.8,391.1C555.1,600,500.2,721.5,463.5,846.9
			c-4.2,15.2,5.2,22.8,11.5,7.6c53.9-113.9,96.3-250.6,142.9-372.2c47.1-125.3,94.2-250.6,141.3-376
			C766.1,87.3,753.6,72.2,748.8,91.1z"/>
		<path class="st0" d="M787.7,83.5c-94.2,250.6-192.1,497.5-280,748.1c-6.9,19,9.8,34.2,16.7,15.2c95.2-243,185.8-497.5,277.4-744.3
			C808.6,83.5,794.5,64.6,787.7,83.5z"/>
		<path class="st0" d="M827.5,98.7c-45,125.3-92.1,250.6-137.1,376C649,588.6,598.8,706.3,563.3,824.1c-4.2,15.2,6.7,26.6,13.1,11.4
			c53.9-113.9,96.3-250.6,140.8-372.2c41.8-117.7,83.7-235.5,123.4-353.2C846.9,94.9,833.8,83.5,827.5,98.7z"/>
		<path class="st0" d="M816.4,265.8c-70.4,186.1-145.5,376-208.1,565.8c-4.2,15.2,8.8,26.6,15.2,11.4c72-182.3,137.1-376,206-565.8
			C833.2,265.8,822.7,250.6,816.4,265.8z"/>
		<path class="st0" d="M828.2,345.6C767.3,508.9,704.3,672.2,645,839.3c-6.9,19,8.3,30.4,15.2,11.4c63-163.3,120.2-330.4,179-493.7
			C843.4,341.8,832.4,330.4,828.2,345.6z"/>
	</g>
	<g>
		<path class="st1" d="M845,291.7c-7.5-3.3-14.4-4-20.5-4.6c-8.5-0.9-14.1-1.4-21.1-8.5c-7-7-7.6-12.6-8.5-21.1
			c-1.1-10.3-2.4-23.1-15.9-36.6c-13.5-13.5-26.3-14.8-36.6-15.8c-8.5-0.9-14.1-1.4-21.1-8.5c-7-7-7.6-12.6-8.5-21.1
			c-0.6-6.1-1.3-13-4.6-20.5c-3.2-7.4-10.5-12.1-18.9-12.1c0,0,0,0,0,0c-8.2,0.1-15.4,5.1-18.5,12.8c-18,45.5-31.4,93.5-40.1,143.2
			l-34-34c-9.2-9.2-21.5-14.3-34.5-14.3s-25.3,5.1-34.5,14.3L264.8,528c-19,19-19,50,0,69l34,34c-49.7,8.7-97.6,22-143.2,40.1
			c-7.6,3-12.6,10.3-12.8,18.5l0,0.3c0,8,4.8,15.3,12.1,18.5c7.5,3.3,14.4,4,20.5,4.6c8.5,0.9,14.1,1.4,21.1,8.5
			c7,7,7.6,12.6,8.5,21.1c1.1,10.3,2.4,23.1,15.9,36.6c13.5,13.5,26.3,14.8,36.6,15.9c8.5,0.9,14.1,1.4,21.1,8.5
			c7,7,7.6,12.6,8.5,21.1c0.6,6.1,1.3,12.9,4.6,20.5c7.2,16.5,30.7,16.1,37.3-0.6c18-45.5,31.4-93.5,40.1-143.2l34,34
			c9.2,9.2,21.5,14.3,34.5,14.3c13,0,25.3-5.1,34.5-14.3L735.2,472c19-19,19-50,0-69l-34-34c49.7-8.7,97.6-22,143.2-40.1
			c7.6-3,12.6-10.3,12.8-18.8C857.2,302.2,852.4,294.9,845,291.7z M686.8,390.9l30.2,30.2c4.1,4.1,6.2,9.3,6.6,14.7
			c0.3,4.4-0.6,8.9-2.8,12.8c-1,1.8-2.2,3.6-3.8,5.2l-39.7,39.7l-12.8,12.8l-44.9,44.9l-12.8,12.8l-44.9,44.9L549,621.9l-44.9,44.9
			l-12.8,12.8L453.9,717c-0.1,0.1-0.2,0.2-0.3,0.3c-4.3,4.2-10,6.5-16,6.5c-6.1,0-11.8-2.4-16.1-6.6c-0.1-0.1-0.2-0.1-0.2-0.2
			l-37.4-37.4l-12.8-12.8L326,621.9l-12.8-12.8L283,578.8c-9.1-9.1-8.7-24,0-32.7l39.7-39.7l12.8-12.8l44.9-44.9l12.8-12.8
			l44.9-44.9l12.8-12.8l44.9-44.9l12.8-12.8l37.4-37.4c4.4-4.4,10.2-6.8,16.3-6.8c6.2,0,12,2.4,16.3,6.8l37.4,37.4l12.8,12.8
			l44.9,44.9L686.8,390.9z M312,816.8c-1.2-9.3-3.9-20.2-15.3-31.5c-13.5-13.5-26.3-14.8-36.6-15.8c-8.5-0.9-14.1-1.4-21.1-8.5
			c-7-7-7.6-12.6-8.5-21.1c-1.1-10.3-2.4-23.1-15.9-36.6c-11.3-11.3-22.2-14.1-31.5-15.3c44-16,90.2-27.6,137.9-34.7l25.6,25.6
			C339.6,726.6,328,772.8,312,816.8z M678.9,346.7l-25.6-25.6c7.2-47.8,18.7-94,34.7-137.9c1.2,9.3,4,20.2,15.3,31.5
			c13.5,13.5,26.3,14.8,36.6,15.8c8.5,0.9,14.1,1.4,21.1,8.5c7,7,7.6,12.6,8.5,21.1c1.1,10.3,2.4,23.1,15.9,36.6
			c11.3,11.3,22.2,14.1,31.5,15.3C772.8,328,726.6,339.6,678.9,346.7z"/>
	</g>
</g>
</svg>
