<svg width="27" height="29" viewBox="0 0 27 29" fill="none" xmlns="http://www.w3.org/2000/svg">
<g clip-path="url(#clip0)">
<path fill-rule="evenodd" clip-rule="evenodd" d="M6.22866 2.85752C5.06417 4.67398 3.92675 6.46205 2.78934 8.2785C2.00399 9.47055 0.460354 11.0032 0.541598 12.4791C0.568679 12.9332 1.13739 12.9899 1.27279 12.5642C1.78734 10.8897 3.08724 9.27188 4.008 7.76762C4.92876 6.23499 5.8766 4.73074 6.79737 3.19811C7.0411 2.82914 6.44531 2.48855 6.22866 2.85752Z" fill="#FF6000"/>
<path fill-rule="evenodd" clip-rule="evenodd" d="M9.85759 1.18296C9.23472 2.11957 8.63893 3.05618 8.04314 3.9644C7.63692 4.58881 7.14946 5.2416 6.77032 5.92277C7.14946 5.69571 7.55568 5.61057 7.9619 5.69571C8.17855 5.29836 8.3952 4.9294 8.61185 4.56043C9.23472 3.56705 9.8305 2.5453 10.4534 1.55193C10.7513 1.12619 10.1284 0.785609 9.85759 1.18296Z" fill="#FF6000"/>
<path fill-rule="evenodd" clip-rule="evenodd" d="M3.14141 12.9048C2.68103 13.7279 2.24773 14.5509 1.78735 15.3456C1.38113 16.0552 0.812427 16.8215 0.677021 17.6446C0.622858 18.0419 1.02908 18.269 1.32697 18.0135C1.92276 17.4743 2.22065 16.5377 2.59979 15.7997C3.03309 14.9767 3.43931 14.1252 3.87261 13.3021C4.08926 12.8196 3.38515 12.4223 3.14141 12.9048Z" fill="#FF6000"/>
<path fill-rule="evenodd" clip-rule="evenodd" d="M12.6469 0.842381C12.2949 1.35326 11.9157 1.86414 11.5908 2.4034C11.2658 2.91427 10.8325 3.48192 10.7242 4.10632C10.6429 4.53205 11.1304 4.81588 11.4283 4.50367C11.8345 4.07794 12.0511 3.45353 12.3219 2.97104C12.6469 2.43178 12.9719 1.89252 13.324 1.35326C13.6218 0.955909 12.9448 0.416649 12.6469 0.842381Z" fill="#FF6000"/>
<path fill-rule="evenodd" clip-rule="evenodd" d="M3.35807 18.1271C2.97894 18.5528 2.65396 19.0069 2.35607 19.5178C2.11234 19.9719 1.76028 20.5395 1.78736 21.0788C1.81444 21.4478 2.27482 21.6748 2.54564 21.391C2.84353 21.022 2.95186 20.5112 3.16851 20.0854C3.41224 19.6313 3.68305 19.2056 4.00802 18.7799C4.38716 18.3257 3.76429 17.673 3.35807 18.1271Z" fill="#FF6000"/>
<path fill-rule="evenodd" clip-rule="evenodd" d="M15.3821 0.870771C15.1384 1.35327 14.8947 1.86414 14.6238 2.34664C14.3801 2.77237 14.0281 3.16972 14.001 3.6806C14.001 3.9928 14.326 4.10633 14.5426 3.9928C14.9488 3.76575 15.1655 3.1981 15.3821 2.77237C15.6258 2.28988 15.8696 1.779 16.0862 1.26812C16.33 0.785625 15.6258 0.359893 15.3821 0.870771Z" fill="#FF6000"/>
<path fill-rule="evenodd" clip-rule="evenodd" d="M4.92879 20.9937C4.65798 21.391 4.41424 21.7884 4.14343 22.1857C3.8997 22.5547 3.57473 22.9237 3.4664 23.3778C3.38516 23.7184 3.79138 24.1157 4.08927 23.8603C4.44133 23.5764 4.65798 23.1223 4.87463 22.725C5.14544 22.2993 5.38917 21.8451 5.65998 21.4194C5.98496 20.9369 5.22668 20.5112 4.92879 20.9937Z" fill="#FF6000"/>
<path fill-rule="evenodd" clip-rule="evenodd" d="M18.3881 1.7506C18.1444 2.14794 17.9007 2.57368 17.6569 2.97103C17.4132 3.33999 17.1424 3.68058 17.1424 4.16307C17.1424 4.47528 17.4945 4.61719 17.7111 4.47528C18.0902 4.24822 18.2527 3.82249 18.4694 3.45352C18.7131 3.02779 18.9568 2.63044 19.1735 2.23309C19.4985 1.69383 18.7131 1.23972 18.3881 1.7506Z" fill="#FF6000"/>
<path fill-rule="evenodd" clip-rule="evenodd" d="M7.09526 23.1223C6.87861 23.548 6.66195 23.9454 6.41822 24.3711C6.20157 24.7401 5.84952 25.0807 5.98492 25.5632C6.012 25.7051 6.20157 25.8754 6.33698 25.847C6.82444 25.7618 6.95985 25.3361 7.20358 24.9388C7.44731 24.513 7.66396 24.0589 7.88061 23.6048C8.12434 23.0372 7.36607 22.5831 7.09526 23.1223Z" fill="#FF6000"/>
<path fill-rule="evenodd" clip-rule="evenodd" d="M20.9879 3.05619C20.7442 3.48192 20.5005 3.87927 20.2567 4.305C20.0401 4.67397 19.7151 5.07132 19.661 5.52543C19.6339 5.83764 19.9318 6.14984 20.2026 5.95116C20.5817 5.69572 20.7442 5.21323 20.9609 4.84426C21.2046 4.39015 21.4483 3.96442 21.692 3.5103C21.9899 2.99943 21.2588 2.57369 20.9879 3.05619Z" fill="#FF6000"/>
<path fill-rule="evenodd" clip-rule="evenodd" d="M9.53261 24.5982C9.34304 24.9388 9.12639 25.3077 8.93682 25.6483C8.74725 25.9889 8.5306 26.3011 8.44935 26.6985C8.36811 27.0958 8.82849 27.3513 9.0993 27.0674C9.37012 26.7836 9.5326 26.4146 9.69509 26.0741C9.88466 25.7051 10.0742 25.3645 10.2638 24.9955C10.5075 24.513 9.80342 24.1157 9.53261 24.5982Z" fill="#FF6000"/>
<path fill-rule="evenodd" clip-rule="evenodd" d="M23.5336 4.70236C23.5065 4.73074 23.5065 4.73074 23.4794 4.75913C23.1545 5.38353 22.8024 6.00794 22.4504 6.63234C22.1254 7.19999 21.665 7.73925 21.5296 8.39203C21.4754 8.67586 21.8004 9.01644 22.0712 8.81777C22.5587 8.42042 22.8566 7.76763 23.1545 7.19999C23.4794 6.60396 23.8044 5.97956 24.1023 5.35515C23.9127 5.15648 23.7232 4.92942 23.5336 4.70236Z" fill="#FF6000"/>
<path fill-rule="evenodd" clip-rule="evenodd" d="M12.674 25.1375C12.4303 25.5632 12.1595 25.9605 11.9158 26.3863C11.672 26.7836 11.4012 27.1526 11.2658 27.6067C11.1304 28.0324 11.672 28.2595 11.9429 28.004C12.2678 27.6918 12.4574 27.2377 12.7011 26.8404C12.9449 26.4147 13.1886 25.9889 13.4323 25.5632C13.7031 25.0523 12.9719 24.655 12.674 25.1375Z" fill="#FF6000"/>
<path fill-rule="evenodd" clip-rule="evenodd" d="M24.644 6.94452L23.669 8.84612C23.3711 9.41376 22.9649 9.9814 22.8566 10.6342C22.8024 10.9464 23.1545 11.1451 23.3711 10.918C23.8044 10.4639 24.0211 9.78273 24.319 9.21508C24.644 8.5623 24.9689 7.93789 25.2668 7.2851C25.4293 6.88775 24.8606 6.54717 24.644 6.94452Z" fill="#FF6000"/>
<path fill-rule="evenodd" clip-rule="evenodd" d="M15.4092 24.8536C15.1384 25.3645 14.8676 25.9038 14.6509 26.443C14.4613 26.9255 14.2176 27.408 14.1634 27.9473C14.1364 28.373 14.6509 28.4014 14.8405 28.1176C15.1113 27.6918 15.2196 27.1242 15.4092 26.6701C15.5987 26.1876 15.8154 25.7051 16.0591 25.251C16.3029 24.7685 15.6529 24.3995 15.4092 24.8536Z" fill="#FF6000"/>
<path fill-rule="evenodd" clip-rule="evenodd" d="M20.4192 22.4695C20.0401 22.6966 19.6339 22.6398 19.336 22.4412C18.5777 23.917 17.8465 25.4213 17.3591 26.9823C17.2237 27.3797 17.7924 27.7202 18.0361 27.3797C19.1193 25.847 19.9859 24.0306 20.7713 22.2141C20.663 22.3276 20.5546 22.4128 20.4192 22.4695Z" fill="#FF6000"/>
<path fill-rule="evenodd" clip-rule="evenodd" d="M25.6459 9.58406C24.9147 11.1451 24.1835 12.7061 23.4252 14.2671C23.6148 14.6645 23.7502 15.0902 23.7773 15.5727C24.6168 13.6995 25.4563 11.8546 26.2958 9.98141C26.5125 9.49892 25.8625 9.10157 25.6459 9.58406Z" fill="#FF6000"/>
<path fill-rule="evenodd" clip-rule="evenodd" d="M26.2417 12.6209C24.671 16.6512 23.1003 20.6815 21.4483 24.6833C21.2317 25.1942 21.8546 25.5348 22.1525 25.0807C23.344 23.2926 23.9398 21.1072 24.671 19.0921C25.321 17.2188 25.998 15.3172 26.675 13.444C26.4855 13.1886 26.3501 12.9048 26.2417 12.6209Z" fill="#FF6000"/>
<path fill-rule="evenodd" clip-rule="evenodd" d="M25.7549 8.16462C25.1862 6.80228 24.5904 5.38317 23.6155 4.24789C22.6406 3.11261 21.3407 2.34629 19.9866 1.75027C13.9475 -0.860887 6.39182 0.217632 2.43796 6.09273C2.35672 6.20625 2.35672 6.2914 2.35672 6.40493C-0.405569 10.8609 -0.920113 16.9631 1.81509 21.561C4.87527 26.7265 10.5082 29.5363 16.1952 28.3443C21.5573 27.2374 25.5653 22.5543 26.7028 17.0482C27.3256 13.9546 26.9465 11.0312 25.7549 8.16462ZM21.3678 6.85904C24.455 10.4068 25.0508 15.9413 22.7218 20.0851C20.5824 23.8883 16.466 26.1021 12.2685 25.5345C8.12502 24.9952 4.36073 21.9583 3.19624 17.7294C2.14007 13.841 3.19624 9.44181 5.90436 6.54684C5.71479 6.31978 5.68771 5.9792 6.01268 5.78052C10.8331 2.9707 17.2785 2.20438 21.3678 6.85904ZM22.2885 18.7228C20.6636 22.3273 17.0889 24.7398 13.2705 24.5979C9.58741 24.4559 5.95852 22.0718 4.49614 18.4673C2.87126 14.3803 3.98159 9.44181 7.12302 6.51846C7.20426 6.43331 7.23134 6.34817 7.25842 6.26302C11.104 4.27627 15.8703 3.56672 19.4991 6.46169C22.9655 9.27152 24.13 14.5506 22.2885 18.7228ZM25.9445 15.2601C25.457 20.3973 22.2343 25.2223 17.4681 26.8968C15.1661 27.6915 12.6747 27.805 10.3186 27.1806C7.66464 26.4711 5.52522 24.7398 3.73786 22.6111C0.0818931 18.1835 0.136055 11.5989 3.06083 6.7739C3.11499 6.74551 3.14207 6.71713 3.16915 6.66037C6.52723 2.03409 12.1872 0.501453 17.4681 1.94894C20.3387 2.74364 22.776 4.13436 24.1571 7.00095C25.4299 9.64049 26.2424 12.28 25.9445 15.2601Z" fill="#2B3A42"/>
<path d="M8.85559 15.0902C8.93683 15.6578 8.66602 16.1971 8.74726 16.7363C8.80143 17.2472 9.58678 17.1337 9.50554 16.6228C9.4243 16.0552 9.69511 15.5159 9.61387 14.9767C9.53262 14.4658 8.77434 14.5793 8.85559 15.0902Z" fill="#FF6000"/>
<path d="M9.93886 15.5159C10.0472 16.2255 10.1014 16.935 10.0743 17.673C10.0743 18.1838 10.8325 18.2974 10.8325 17.7865C10.8596 16.9918 10.8055 16.1971 10.6971 15.4308C10.643 14.9199 9.8847 15.0051 9.93886 15.5159Z" fill="#FF6000"/>
<path d="M11.2658 16.1971C11.3742 17.0202 11.4283 17.8432 11.4554 18.6663C11.4554 19.1772 12.2408 19.0637 12.2137 18.5528C12.1866 17.7297 12.1324 16.9066 12.0241 16.0836C11.9429 15.5727 11.1846 15.6862 11.2658 16.1971Z" fill="#FF6000"/>
<path d="M13.1073 15.4592C13.0532 15.9133 12.999 16.3674 12.9448 16.8215C12.8907 17.3324 13.649 17.4459 13.7031 16.935C13.7573 16.4809 13.8114 16.0268 13.8656 15.5727C13.9469 15.0618 13.1886 14.9483 13.1073 15.4592Z" fill="#FF6000"/>
<path d="M14.4614 13.5292C14.353 14.2387 14.2718 14.9483 14.2176 15.6578C14.1905 16.1687 14.9488 16.2822 14.9759 15.7714C15.0301 15.0618 15.1113 14.3523 15.2196 13.6427C15.328 13.1034 14.5426 13.0183 14.4614 13.5292Z" fill="#FF6000"/>
<path d="M15.8426 12.0249C15.8696 12.7061 15.8426 13.4156 15.7613 14.0968C15.7071 14.6077 16.4654 14.7212 16.5196 14.2103C16.6008 13.444 16.6279 12.6777 16.6008 11.9398C16.5738 11.4005 15.8155 11.514 15.8426 12.0249Z" fill="#FF6000"/>
<path d="M17.0883 10.5774C16.98 11.2018 16.9529 11.8263 17.0071 12.4507C17.0341 12.9615 17.7924 12.848 17.7653 12.3371C17.7383 11.7695 17.7653 11.2302 17.8466 10.6626C17.9278 10.1801 17.1695 10.0666 17.0883 10.5774Z" fill="#FF6000"/>
<path d="M8.07018 16.9067C9.28883 17.9284 10.4804 18.9502 11.6991 20.0003C11.8616 20.1422 12.1053 20.0855 12.2407 19.9152C13.8385 17.9568 15.4363 15.9984 17.0341 14.0401C17.4132 13.5576 17.8194 13.1035 18.1986 12.621C18.4965 12.252 18.9839 11.8546 19.1464 11.4005C19.2547 11.1167 19.1735 10.918 19.011 10.6626C18.6589 10.1233 18.1986 9.66922 17.7923 9.18673C17.6299 8.98805 17.332 8.98805 17.1966 9.18673C16.0862 10.8329 14.9217 12.4223 13.6489 13.9549C13.3239 14.3239 13.026 14.7212 12.7011 15.0902C12.5657 15.2605 12.4032 15.5443 12.2136 15.6578C12.1594 15.7146 12.0782 15.7714 12.024 15.8281C11.8886 15.743 11.7532 15.6578 11.6449 15.5443C10.8866 15.0051 10.1554 14.3807 9.45132 13.7279C9.28883 13.586 9.0451 13.6711 8.9097 13.813C8.6118 14.182 8.28683 14.5509 7.98893 14.9199C7.77228 15.2037 7.47439 15.4876 7.36606 15.8281C7.20358 16.339 7.47439 16.8783 7.98893 16.935C8.4764 16.9918 8.58472 16.1971 8.09726 16.1403C8.07018 16.1403 8.72013 15.2889 8.77429 15.2037C9.01802 14.8915 9.28883 14.6077 9.53256 14.2955C9.343 14.3239 9.18051 14.3523 8.99094 14.3807C9.7763 15.1186 10.7241 16.0836 11.6991 16.5377C12.4573 16.9067 13.026 15.8849 13.4864 15.374C15.0571 13.5576 16.4924 11.656 17.8194 9.66922C17.6299 9.66922 17.4132 9.66922 17.2236 9.66922C17.5486 10.0666 17.8736 10.4639 18.2256 10.8613C18.3069 10.9464 18.3881 11.0599 18.4423 11.1451C18.4152 11.0599 18.3881 11.0883 18.334 11.2019C18.2527 11.4289 17.9819 11.6276 17.8465 11.7979C17.1424 12.6493 16.4654 13.4724 15.7613 14.3239C14.3801 16.0552 12.999 17.7297 11.6178 19.4327C11.8074 19.4043 11.9699 19.3759 12.1594 19.3475C10.9408 18.3258 9.74921 17.304 8.53056 16.2539C8.15142 15.9417 7.69104 16.5661 8.07018 16.9067Z" fill="#2B3A42"/>
</g>
<defs>
<clipPath id="clip0">
<rect width="27" height="28.2118" fill="white" transform="translate(0 0.416656)"/>
</clipPath>
</defs>
</svg>
