<svg width="45" height="34" viewBox="0 0 45 34" fill="none" xmlns="http://www.w3.org/2000/svg">
<g clip-path="url(#clip0)">
<path fill-rule="evenodd" clip-rule="evenodd" d="M2.18294 5.66686C1.9101 5.9367 1.63726 6.47639 1.36442 6.74623C1.09158 7.01607 0.818738 7.28591 0.545898 7.55575C0.545898 7.82559 0.545898 8.09543 0.545898 8.09543C0.818738 8.36527 1.09158 8.36527 1.36442 8.09543C1.63726 8.09543 1.9101 7.82559 2.18294 7.55575C2.72861 7.28591 3.00145 7.01607 3.27429 6.74623C3.81997 6.20654 3.00145 5.12718 2.18294 5.66686Z" fill="#FF6000"/>
<path fill-rule="evenodd" clip-rule="evenodd" d="M2.72802 8.63489C2.18234 9.17457 1.9095 9.44441 1.36382 9.98409C1.09098 10.2539 0.5453 10.7936 0.272461 11.3333C0.272461 11.6031 0.545301 11.873 0.81814 11.873C1.36382 11.873 1.63666 11.0635 2.18234 10.7936L3.54654 9.44441C4.09221 8.90473 3.2737 8.0952 2.72802 8.63489Z" fill="#FF6000"/>
<path fill-rule="evenodd" clip-rule="evenodd" d="M2.72854 12.1428C2.4557 12.6825 1.91002 12.9523 1.63718 13.492C1.0915 13.7619 0.545826 14.0317 0.818665 14.8412C0.818665 15.1111 1.0915 15.1111 1.0915 15.1111C1.63718 15.1111 2.18286 14.5714 2.4557 14.3016C3.00138 13.7619 3.27422 13.492 3.8199 12.9523C4.36558 12.4127 3.27422 11.6031 2.72854 12.1428Z" fill="#FF6000"/>
<path fill-rule="evenodd" clip-rule="evenodd" d="M3.0016 15.381C2.72876 15.9207 2.18308 16.1905 1.91024 16.7302C1.36456 17 0.81888 17.2699 0.54604 17.8096C0.273201 18.3492 0.81888 18.8889 1.09172 18.6191C1.91024 18.6191 2.18308 18.0794 2.72876 17.5397C3.0016 17.2699 3.54727 16.7302 4.09295 16.1905C4.36579 15.6508 3.54727 14.8413 3.0016 15.381Z" fill="#FF6000"/>
<path fill-rule="evenodd" clip-rule="evenodd" d="M3.00108 19.4287C2.72824 19.6985 2.18256 19.9683 1.90972 20.2382C1.63688 20.508 1.0912 20.7779 0.818359 21.3176C0.818359 21.5874 0.818359 21.8572 1.0912 21.8572C1.90972 22.1271 2.4554 21.5874 2.72824 21.3176C3.27391 21.0477 3.54675 20.508 4.09243 20.2382C4.63811 19.6985 3.54675 18.6191 3.00108 19.4287Z" fill="#FF6000"/>
<path fill-rule="evenodd" clip-rule="evenodd" d="M3.00108 22.9364C2.72824 23.2062 2.18256 23.4761 1.90972 23.7459C1.36404 24.2856 0.818359 24.2856 0.818359 24.8253C0.818359 25.0951 0.818359 25.365 1.0912 25.365C1.63688 25.365 2.18256 25.0951 2.4554 24.8253C3.27391 24.5554 3.54675 24.2856 4.09243 23.7459C4.63811 23.2062 3.81959 22.3967 3.00108 22.9364Z" fill="#FF6000"/>
<path fill-rule="evenodd" clip-rule="evenodd" d="M4.09279 26.7143C4.09279 26.4444 3.54712 26.1746 3.27428 26.4444C3.00144 26.7143 2.45576 26.9841 2.18292 27.5238C1.91008 27.7936 1.3644 28.0635 1.3644 28.6031C1.09156 29.1428 1.63724 29.4127 1.91008 29.4127C2.45576 29.4127 2.7286 29.1428 3.00144 28.873C3.27428 28.6031 3.81996 28.3333 4.09279 28.0635C4.36563 27.5238 4.36563 26.9841 4.09279 26.7143Z" fill="#FF6000"/>
<path fill-rule="evenodd" clip-rule="evenodd" d="M3.5472 29.9524C3.27436 30.2222 2.72868 30.7619 2.183 31.0318C1.91016 31.3016 1.09164 31.5714 1.36448 32.1111C1.36448 32.381 1.63732 32.6508 1.63732 32.6508C2.183 32.6508 2.72868 32.381 3.00152 31.8413C3.5472 31.5714 3.82004 31.0318 4.36572 30.7619C5.18424 30.2222 4.09288 29.4127 3.5472 29.9524Z" fill="#FF6000"/>
<path fill-rule="evenodd" clip-rule="evenodd" d="M7.63953 29.4127C7.09385 29.9524 6.54817 30.4921 6.27533 30.7619C5.72965 31.3016 5.18397 31.5715 4.91113 32.1112C4.91113 32.381 5.18397 32.9207 5.45681 32.6508C6.27533 32.6508 6.54817 31.8413 7.09385 31.5715C7.63953 31.0318 8.18521 30.4921 8.45805 29.9524C9.00372 29.6826 8.18521 28.8731 7.63953 29.4127Z" fill="#FF6000"/>
<path fill-rule="evenodd" clip-rule="evenodd" d="M10.6403 29.6826C10.3675 29.9525 9.82183 30.4922 9.54899 30.762C9.27615 31.0318 8.73047 31.5715 8.73047 31.8414C8.73047 32.1112 9.00331 32.6509 9.27615 32.381C9.82183 32.381 10.0947 31.8414 10.3675 31.3017C10.6403 31.0318 10.9132 30.4922 11.4589 30.2223C12.0045 29.9525 11.186 29.143 10.6403 29.6826Z" fill="#FF6000"/>
<path fill-rule="evenodd" clip-rule="evenodd" d="M15.006 29.6825C14.7331 29.4126 14.4603 29.4126 14.1874 29.6825C13.9146 29.9523 13.6418 30.492 13.0961 30.7619C12.8232 31.0317 12.0047 31.3015 12.2776 31.8412C12.2776 32.1111 12.5504 32.3809 12.5504 32.3809C13.0961 32.6507 13.6418 31.8412 13.9146 31.5714C14.1874 31.3015 14.7331 30.7619 15.006 30.2222C15.2788 30.2222 15.2788 29.9523 15.006 29.6825Z" fill="#FF6000"/>
<path fill-rule="evenodd" clip-rule="evenodd" d="M17.7341 29.9524C17.1884 30.4921 16.6427 31.0318 16.0971 31.5714C15.8242 31.8413 15.8242 32.1111 15.8242 32.1111C15.8242 32.381 16.0971 32.381 16.3699 32.6508C16.6427 32.6508 16.9156 32.6508 16.9156 32.381C17.4613 31.8413 18.0069 31.3016 18.5526 30.7619C19.0983 30.2222 18.2798 29.4127 17.7341 29.9524Z" fill="#FF6000"/>
<path fill-rule="evenodd" clip-rule="evenodd" d="M20.19 30.762C19.9172 31.0318 19.6443 31.3016 19.6443 31.3016C19.3715 31.8413 19.0986 32.1112 19.0986 32.381C19.0986 32.6508 19.3715 32.9207 19.6443 32.9207C19.9172 32.9207 20.19 32.6508 20.4628 32.381C20.7357 32.1112 21.0085 31.8413 21.0085 31.5715C21.5542 31.0318 20.7357 30.2223 20.19 30.762Z" fill="#FF6000"/>
<path fill-rule="evenodd" clip-rule="evenodd" d="M24.5554 29.9524C24.2825 30.2223 24.0097 30.7619 23.464 31.0318C23.1912 31.3016 22.6455 31.8413 22.6455 32.1111C22.6455 32.381 22.9183 32.6508 22.9183 32.6508C23.464 32.6508 24.0097 32.1111 24.2825 31.8413C24.5554 31.3016 25.1011 31.0318 25.3739 30.4921C25.9196 30.2223 25.1011 29.4127 24.5554 29.9524Z" fill="#FF6000"/>
<path fill-rule="evenodd" clip-rule="evenodd" d="M27.8298 29.4127C27.557 29.9524 27.2841 30.2222 26.7384 30.7619C26.4656 31.3016 25.9199 31.5714 25.9199 32.1111C26.1928 32.3809 26.1928 32.3809 26.4656 32.3809C27.0113 32.6508 27.557 31.8412 27.8298 31.5714C28.1026 31.0317 28.6483 30.492 28.9212 30.2222C29.194 29.4127 28.1026 28.873 27.8298 29.4127Z" fill="#FF6000"/>
<path fill-rule="evenodd" clip-rule="evenodd" d="M30.8305 29.4128C30.5577 29.9525 30.012 30.2224 29.7392 30.7621C29.4663 31.3017 28.9207 31.5716 29.1935 32.1113C29.1935 32.3811 29.4663 32.3811 29.7392 32.3811C30.2849 32.3811 30.5577 31.8414 30.8305 31.5716C31.1034 31.3017 31.3762 30.7621 31.9219 30.4922C32.1947 29.4128 31.3762 28.6033 30.8305 29.4128Z" fill="#FF6000"/>
<path fill-rule="evenodd" clip-rule="evenodd" d="M34.3779 29.6826C34.105 29.4127 33.5593 29.6826 33.5593 29.9524C33.2865 30.2223 33.0137 30.4921 32.7408 31.0318C32.468 31.3016 32.1951 32.1111 32.7408 32.381C33.2865 32.6508 33.5593 32.1111 33.8322 31.8413C34.105 31.5715 34.3779 31.0318 34.6507 30.7619C34.6507 30.2223 34.6507 29.6826 34.3779 29.6826Z" fill="#FF6000"/>
<path fill-rule="evenodd" clip-rule="evenodd" d="M42.8361 22.1272C40.3805 25.0954 38.1978 28.8732 35.1966 31.5716C34.6509 32.1113 35.4694 32.9208 36.0151 32.651C37.6521 31.5716 38.4706 29.9525 39.562 28.6033C40.9262 26.7145 42.2904 24.8256 43.6546 22.9367C43.9274 22.1272 43.1089 21.5875 42.8361 22.1272Z" fill="#FF6000"/>
<path fill-rule="evenodd" clip-rule="evenodd" d="M43.1084 25.0954C41.4714 27.5239 39.2887 29.6827 37.6517 32.1112C37.106 32.6509 38.1973 33.1906 38.743 32.9208C40.9257 31.0319 42.5628 28.0636 43.927 25.635C44.1998 25.0954 43.6541 24.8255 43.1084 25.0954Z" fill="#FF6000"/>
<path fill-rule="evenodd" clip-rule="evenodd" d="M42.836 29.4126C42.5632 29.9522 42.0175 30.4919 41.7447 30.7618C41.4718 31.3014 40.9262 31.5713 40.6533 32.111C40.6533 32.3808 40.9262 32.9205 41.4718 32.6507C42.0175 32.3808 42.2904 31.8411 42.836 31.3014C43.1089 30.7618 43.6546 30.2221 43.9274 29.6824C44.2002 29.4126 43.1089 28.8729 42.836 29.4126Z" fill="#FF6000"/>
<path fill-rule="evenodd" clip-rule="evenodd" d="M42.8354 18.3493C42.2898 18.8889 42.0169 19.4286 41.4712 19.9683C40.9256 20.508 40.3799 21.0477 40.3799 21.5874C40.3799 21.8572 40.6527 22.127 40.9256 22.127C41.4712 21.8572 41.7441 21.3175 42.2898 20.7778C42.8354 20.2382 43.1083 19.6985 43.654 18.8889C43.9268 18.6191 43.1083 17.8096 42.8354 18.3493Z" fill="#FF6000"/>
<path fill-rule="evenodd" clip-rule="evenodd" d="M42.8363 14.8414C42.5635 15.3811 42.0178 15.6509 41.745 16.1906C41.4721 16.4604 40.9265 17.0001 40.6536 17.5398C40.3808 18.0795 40.9265 18.6192 41.4721 18.3493C42.0178 18.0795 42.2907 17.5398 42.5635 17.0001C42.8363 16.4604 43.382 16.1906 43.6549 15.6509C44.2005 14.8414 43.382 14.3017 42.8363 14.8414Z" fill="#FF6000"/>
<path fill-rule="evenodd" clip-rule="evenodd" d="M42.8363 11.6032C42.2906 12.4127 41.4721 12.9524 40.6536 13.762C40.1079 14.3016 40.9264 15.1112 41.4721 14.5715C42.2906 14.0318 42.8363 13.2223 43.382 12.4127C43.9277 11.6032 43.1091 11.0635 42.8363 11.6032Z" fill="#FF6000"/>
<path fill-rule="evenodd" clip-rule="evenodd" d="M42.2904 8.09521C42.0175 8.36506 41.7447 8.6349 41.4718 8.90474C41.199 9.17458 40.9262 9.44442 40.6533 9.9841C40.6533 10.5238 40.9262 10.7936 41.4718 10.5238C41.7447 10.2539 42.0175 9.9841 42.2904 9.71426C42.5632 9.44442 42.836 9.17458 43.1089 8.90474C43.6546 8.36506 42.836 7.55553 42.2904 8.09521Z" fill="#FF6000"/>
<path fill-rule="evenodd" clip-rule="evenodd" d="M42.2898 5.12703L41.1984 6.20639C40.9256 6.47624 40.3799 7.01592 40.3799 7.5556C40.3799 7.82544 40.6527 8.09528 40.9256 8.09528C41.4712 8.09528 41.7441 7.5556 42.0169 7.01592C42.2898 6.74608 42.5626 6.20639 43.1083 5.93655C43.654 5.12703 42.8354 4.58735 42.2898 5.12703Z" fill="#FF6000"/>
<path fill-rule="evenodd" clip-rule="evenodd" d="M8.73132 0.539683C8.18565 1.07937 7.63997 1.61905 7.36713 2.15873C6.82145 2.69841 6.27577 3.2381 6.00293 3.77778C6.00293 4.31746 6.27577 4.5873 6.82145 4.31746C7.36713 4.04762 7.91281 3.50794 8.18565 2.96825C8.73132 2.42857 9.277 1.88889 9.54984 1.61905C10.3684 1.07937 9.277 0.269841 8.73132 0.539683Z" fill="#FF6000"/>
<path fill-rule="evenodd" clip-rule="evenodd" d="M12.0054 0.539794C10.914 1.61916 9.82268 2.96837 8.73132 4.31757C7.91281 5.39694 6.54861 6.4763 6.00293 7.55567C6.00293 7.82551 6.27577 8.09535 6.54861 8.09535C7.91281 7.55567 8.73132 6.20646 9.54984 5.1271C10.6412 3.77789 11.7326 2.42868 12.8239 1.34932C13.3696 0.809636 12.5511 0.000111639 12.0054 0.539794Z" fill="#FF6000"/>
<path fill-rule="evenodd" clip-rule="evenodd" d="M15.0059 1.34939C12.2775 4.31764 9.00341 7.2859 6.54785 10.7938C6.54785 11.3335 6.82069 11.8732 6.82069 12.4129C10.0948 9.17479 12.8232 5.39701 15.8244 1.88907C16.0972 1.61923 15.5516 0.809705 15.0059 1.34939Z" fill="#FF6000"/>
<path fill-rule="evenodd" clip-rule="evenodd" d="M15.2793 4.8572C12.2781 8.36514 8.73117 11.6032 6.27562 15.381C6.00278 15.9207 6.8213 16.4604 7.09414 15.9207C10.3682 12.9524 13.0966 8.90482 16.0978 5.39688C16.6435 5.12704 15.825 4.31752 15.2793 4.8572Z" fill="#FF6000"/>
<path fill-rule="evenodd" clip-rule="evenodd" d="M16.3708 9.17468C16.3708 9.17468 16.098 9.17468 16.098 9.44452C15.2795 9.98421 14.461 10.7937 13.9153 11.6033C13.0968 12.1429 12.2782 12.6826 11.7326 13.4921C11.4597 14.0318 12.0054 14.5715 12.2782 14.3017C13.0968 14.0318 13.9153 12.9525 14.461 12.4128C15.0066 11.8731 15.5523 11.3334 16.098 10.7937C16.098 10.254 16.3708 9.71437 16.3708 9.17468Z" fill="#FF6000"/>
<path fill-rule="evenodd" clip-rule="evenodd" d="M8.45832 16.1904C8.18548 16.4603 7.6398 16.7301 7.36696 17C7.09412 17.2698 6.54844 17.5396 6.54844 17.8095C6.2756 18.0793 6.54844 18.619 7.09412 18.619C7.6398 18.619 7.91264 18.3492 8.18548 17.8095C8.45832 17.5396 9.004 17.2698 9.27684 17C9.54968 16.4603 8.73116 15.6507 8.45832 16.1904Z" fill="#FF6000"/>
<path fill-rule="evenodd" clip-rule="evenodd" d="M15.2788 13.492C15.006 14.0316 14.4603 14.3015 13.9146 14.8412C13.3689 15.111 12.8232 15.3808 12.8232 15.9205C12.8232 16.1904 13.0961 16.4602 13.3689 16.4602C13.9146 16.4602 14.4603 15.9205 14.7331 15.6507C15.2788 15.3808 15.5516 14.8412 16.0973 14.5713C16.643 14.0316 16.0973 13.2221 15.2788 13.492Z" fill="#FF6000"/>
<path fill-rule="evenodd" clip-rule="evenodd" d="M16.0973 16.9999C16.0973 16.73 15.5516 16.73 15.2788 16.9999C15.0059 17.2697 14.4603 17.5395 13.9146 17.8094C13.6418 17.8094 13.6418 18.0792 13.9146 18.3491C13.9146 18.3491 13.9146 18.6189 14.1874 18.6189C14.1874 18.8888 14.4603 18.8888 14.7331 18.6189C15.0059 18.3491 15.5516 18.0792 15.8245 17.8094C16.0973 17.5395 16.3701 17.2697 16.0973 16.9999Z" fill="#FF6000"/>
<path fill-rule="evenodd" clip-rule="evenodd" d="M5.45713 3.77783C5.18429 4.31751 4.63861 4.8572 4.36577 5.39688C3.82009 5.66672 3.27441 6.2064 3.27441 6.74609C3.27441 7.01593 3.54725 7.55561 4.09293 7.55561C4.63861 7.28577 4.91145 6.74609 5.45713 6.2064C5.72997 5.66672 6.27565 5.12704 6.54849 4.58736C6.82133 4.04767 6.00281 3.23815 5.45713 3.77783Z" fill="#EAF0F4"/>
<path fill-rule="evenodd" clip-rule="evenodd" d="M5.45713 7.55554C5.18429 8.09522 4.91145 8.36507 4.36577 8.90475C4.09293 9.44443 3.54725 9.71427 3.27441 10.254C3.27441 10.7936 3.54725 11.0635 4.09293 10.7936C4.63861 10.7936 4.91145 10.254 5.45713 9.71427C5.72997 9.17459 6.27565 8.90475 6.54849 8.36506C7.09417 7.82538 6.00281 7.01586 5.45713 7.55554Z" fill="#EAF0F4"/>
<path fill-rule="evenodd" clip-rule="evenodd" d="M5.72997 11.3334C5.18429 11.6032 4.63861 12.1429 4.36577 12.6826C3.82009 13.2223 3.27441 13.4921 3.27441 14.3016C3.27441 14.5715 3.54725 14.8413 4.09293 14.8413C4.63861 14.5715 4.91145 14.0318 5.18429 13.4921C5.72997 12.9524 6.00281 12.6826 6.54849 12.1429C7.09417 11.6032 6.27565 10.7937 5.72997 11.3334Z" fill="#EAF0F4"/>
<path fill-rule="evenodd" clip-rule="evenodd" d="M5.72921 15.1112C5.18353 15.6509 4.36501 16.1906 3.81934 17.0001C3.81934 17.2699 3.81934 17.5398 3.81934 17.5398C3.81934 17.5398 3.81934 17.8096 4.09218 17.8096C4.36502 17.8096 4.63785 17.8096 4.63785 17.8096C5.45637 17.2699 6.00205 16.4604 6.54773 15.9207C7.09341 15.381 6.27489 14.5715 5.72921 15.1112Z" fill="#EAF0F4"/>
<path fill-rule="evenodd" clip-rule="evenodd" d="M11.7317 14.5715C10.9132 15.1112 9.8218 15.9207 9.00328 16.7302C9.00328 17.8096 8.4576 18.6191 7.36624 18.889C7.0934 18.889 6.82056 18.889 6.54772 18.6191C5.45637 19.4287 4.09217 20.508 3.54649 21.5874C3.27365 22.1271 3.54649 22.6668 4.09217 22.3969C5.45637 21.8572 6.54772 20.508 7.91192 19.4287C9.54896 18.0795 10.9132 16.7302 12.5502 15.381C13.0959 15.1112 12.5502 14.0318 11.7317 14.5715Z" fill="#EAF0F4"/>
<path fill-rule="evenodd" clip-rule="evenodd" d="M13.9145 18.0794L13.6416 17.8096C13.6416 17.8096 13.3688 17.5397 13.3688 17.2699C11.7317 18.3493 10.3675 19.4286 8.73051 20.508C6.82063 21.8572 4.63792 23.2064 3.27372 25.0953C2.72804 25.635 3.8194 26.4445 4.36508 25.9048C6.27495 23.4762 9.27619 22.127 11.4589 20.2382C12.2774 19.6985 13.3688 18.8889 13.9145 18.0794C14.1873 18.0794 14.1873 18.0794 13.9145 18.0794Z" fill="#EAF0F4"/>
<path fill-rule="evenodd" clip-rule="evenodd" d="M32.4676 1.3493C27.2837 5.9366 22.0997 10.5239 16.643 14.8414C16.3701 14.8414 16.3701 14.8414 16.3701 15.1112C16.3701 15.381 16.3701 16.1906 16.3701 16.4604C17.1886 15.6509 18.28 15.1112 19.0985 14.3017C24.0096 10.5239 28.6479 6.20644 33.0133 1.88898C33.559 1.61914 32.7405 1.07946 32.4676 1.3493Z" fill="#EAF0F4"/>
<path fill-rule="evenodd" clip-rule="evenodd" d="M28.1026 1.61908C24.01 4.85717 20.1902 8.09527 16.0977 11.6032C16.3705 11.873 16.3705 12.4127 16.3705 12.9524C20.4631 9.44447 24.5557 5.93654 28.6483 2.15876C29.194 1.88892 28.6483 1.34923 28.1026 1.61908Z" fill="#EAF0F4"/>
<path fill-rule="evenodd" clip-rule="evenodd" d="M22.6457 3.23797C20.1902 4.85702 17.7346 6.47607 15.5519 8.6348C15.2791 8.90464 15.8247 9.71416 16.0976 9.17448C18.5531 7.55543 20.7359 5.3967 22.9186 3.77765C23.4642 3.50781 23.1914 2.96813 22.6457 3.23797Z" fill="#EAF0F4"/>
<path fill-rule="evenodd" clip-rule="evenodd" d="M19.0983 2.69823C18.5526 3.23791 18.0069 3.50775 17.1884 4.04744C16.6427 4.58712 16.0971 4.85696 15.5514 5.39664C15.2785 5.66648 15.5514 6.20617 16.0971 6.20617C16.6427 5.93633 17.1884 5.39664 18.0069 4.85696C18.5526 4.31728 19.0983 4.04744 19.644 3.50775C20.1896 3.23791 19.644 2.42839 19.0983 2.69823Z" fill="#EAF0F4"/>
<path fill-rule="evenodd" clip-rule="evenodd" d="M16.9163 2.15875C16.3706 2.15875 16.0978 2.42859 15.8249 2.69843C15.5521 2.96827 15.8249 3.23811 16.0978 3.23811C16.3706 3.23811 16.9163 2.96827 17.1891 2.69843C17.7348 2.42859 17.1891 1.88891 16.9163 2.15875Z" fill="#EAF0F4"/>
<path fill-rule="evenodd" clip-rule="evenodd" d="M36.0151 2.42852C25.3744 11.3333 14.188 19.6984 3.27438 28.3333C2.7287 28.6031 3.54722 29.4127 3.82006 29.1428C15.2793 21.3174 25.9201 12.1428 36.288 2.96821C36.8336 2.69837 36.288 2.15868 36.0151 2.42852Z" fill="#EAF0F4"/>
<path fill-rule="evenodd" clip-rule="evenodd" d="M39.016 3.23828C33.8321 7.2859 28.921 11.6034 23.737 15.651C21.2815 17.8097 18.8259 19.9684 16.0975 22.1272C13.642 24.5557 10.6407 26.7145 8.18516 29.1431C7.91232 29.4129 8.18516 29.9526 8.73084 29.6827C11.1864 28.0637 13.642 25.905 15.8247 24.0161C18.5531 21.8573 21.2815 19.4288 23.737 17.27C28.921 12.9526 34.1049 8.36526 39.5617 4.0478C39.8346 3.50812 39.5617 2.96844 39.016 3.23828Z" fill="#EAF0F4"/>
<path fill-rule="evenodd" clip-rule="evenodd" d="M40.1072 5.9364C30.5579 13.492 21.5542 21.3174 12.2776 29.1428C11.7319 29.6824 12.5505 30.492 13.0961 29.9523C22.0998 22.1269 31.3764 14.3015 40.3801 6.74592C40.9258 6.20624 40.3801 5.39672 40.1072 5.9364Z" fill="#EAF0F4"/>
<path fill-rule="evenodd" clip-rule="evenodd" d="M40.107 9.17451C36.0144 12.9523 31.9218 16.7301 27.5564 20.5079C25.6465 22.3967 23.4638 24.0158 21.5539 25.9047C20.1897 26.984 17.7342 28.6031 17.1885 30.2221C17.1885 30.492 17.4613 30.7618 17.7342 30.7618C18.007 30.7618 18.007 30.492 18.2798 30.492C18.5527 30.492 18.8255 30.2221 19.0984 29.9523C19.644 29.4126 20.1897 29.1428 20.7354 28.6031C21.8267 27.7936 22.6453 26.7142 23.7366 25.9047C25.6465 24.2856 27.5564 22.3967 29.4663 20.7777C33.286 17.2698 37.1058 13.492 41.1984 9.98404C41.1984 9.17451 40.6527 8.63483 40.107 9.17451Z" fill="#EAF0F4"/>
<path fill-rule="evenodd" clip-rule="evenodd" d="M40.3806 13.2222C34.1053 18.8889 27.5571 24.2857 21.5547 30.492C21.009 31.0317 21.8275 31.5714 22.1003 31.0317C28.6485 25.6349 34.3781 19.4285 40.6534 13.7619C41.1991 13.492 40.6534 12.6825 40.3806 13.2222Z" fill="#EAF0F4"/>
<path fill-rule="evenodd" clip-rule="evenodd" d="M40.1072 17.2697C36.0146 21.0475 31.6491 25.0951 27.8294 29.1427C27.2837 29.6824 28.1022 30.2221 28.6479 29.9522C32.7405 25.9046 36.5602 21.857 40.6528 17.8094C41.1985 17.5396 40.6528 16.9999 40.1072 17.2697Z" fill="#EAF0F4"/>
<path fill-rule="evenodd" clip-rule="evenodd" d="M40.3804 21.3176C39.0162 22.6668 37.3792 24.016 36.015 25.635C34.6508 26.9842 33.2866 28.0636 32.4681 29.4128C32.1952 29.9525 32.7409 30.2223 33.2866 29.9525C34.6508 28.8731 35.7422 27.2541 37.1064 25.9049C38.4705 24.5557 39.8347 23.2065 41.1989 21.8572C41.1989 21.5874 40.6533 21.0477 40.3804 21.3176Z" fill="#EAF0F4"/>
<path fill-rule="evenodd" clip-rule="evenodd" d="M40.3806 24.5555C39.5621 25.3651 38.7436 26.1746 37.925 26.9841C37.1065 27.7936 36.288 28.6032 35.7423 29.4127C35.4695 29.6825 36.0152 29.9524 36.288 29.9524C37.1065 29.4127 37.925 28.3333 38.4707 27.5238C39.2892 26.7143 40.1078 25.9047 40.9263 24.8254C41.1991 24.8254 40.6534 24.2857 40.3806 24.5555Z" fill="#EAF0F4"/>
<path fill-rule="evenodd" clip-rule="evenodd" d="M44.2 25.6349C44.2 23.2064 44.2 21.0476 44.2 18.619C44.2 14.0317 44.2 9.1746 44.2 4.5873C44.2 4.04762 43.6543 3.77778 43.3815 4.04762C42.563 4.04762 42.0173 4.31746 41.1988 4.31746C40.9259 4.04762 40.6531 3.50794 40.3802 3.2381C34.6506 0 27.2839 0.539683 21.5543 3.2381C19.6444 2.42857 18.2802 1.88889 16.6432 1.61905C16.3704 1.34921 16.3704 1.07937 16.0975 0.809524C15.5519 0 13.3691 0.269841 12.2778 0C11.1864 0 10.0951 0 9.0037 0C8.45802 0 7.6395 0 7.09383 0.269841C6.54815 0.539683 6.27531 1.07937 6.00247 1.61905C5.72963 1.61905 5.45679 1.61905 5.45679 1.88889C4.09259 2.15873 3.00123 2.42857 2.72839 3.77778C2.72839 4.04762 2.72839 4.04762 2.72839 4.31746C1.90988 4.31746 1.3642 4.31746 0.545679 4.31746C0.272839 4.31746 0 4.5873 0 4.85714C0 14.3016 0.272839 23.746 0.818518 33.1905C0.818518 33.7302 1.3642 34 1.63704 33.7302C6.27531 32.9206 10.9136 32.6508 15.8247 32.9206C16.916 32.9206 18.0074 33.1905 19.0988 33.1905C19.6444 33.1905 20.463 33.4603 21.0086 33.4603C21.2815 33.7302 21.2815 33.7302 21.8272 33.7302C26.1926 32.381 30.8309 32.6508 35.4691 32.9206C36.5605 32.9206 37.9247 32.9206 39.016 33.1905C39.8346 33.4603 40.6531 33.7302 41.4716 33.7302C42.8358 33.7302 43.6543 32.6508 43.9272 31.3016C44.4728 29.6825 44.2 27.5238 44.2 25.6349ZM16.6432 2.69841C18.0074 2.96825 19.3716 3.50794 20.7358 4.04762C20.463 12.9524 21.8272 21.5873 21.2815 30.2222C18.8259 29.1429 16.0975 29.1429 13.642 29.1429C10.6407 29.1429 7.63951 29.1429 4.63827 29.6825C4.63827 22.3968 4.36543 15.1111 4.36543 7.8254C4.36543 7.01587 4.36543 6.20635 4.36543 5.12698C4.36543 4.04762 4.63827 3.2381 5.72963 2.96825H6.00247C6.00247 4.85714 6.00247 7.01587 6.00247 8.90476C6.00247 10.7937 6.00247 12.9524 6.00247 14.8413C6.00247 16.1905 5.72963 18.3492 6.54815 19.6984C6.82099 19.9683 7.36667 19.9683 7.63951 19.6984C9.0037 17.8095 10.0951 15.9206 11.1864 13.7619C12.8235 15.6508 13.3691 18.3492 15.279 19.6984C15.5518 19.9683 15.8247 19.6984 15.8247 19.4286C16.916 17 16.3704 14.3016 16.3704 11.873C16.3704 11.3333 16.3704 10.7937 16.3704 10.5238C16.3704 8.90476 16.3704 7.28571 16.3704 5.66667C16.6432 4.5873 16.6432 3.77778 16.6432 2.69841ZM11.1864 12.6825C10.9136 12.4127 10.6407 12.4127 10.3679 12.6825C9.54938 14.5714 8.45802 16.4603 7.09383 18.3492C6.82099 17.2698 7.09383 15.9206 7.09383 15.1111C7.09383 13.7619 7.09383 12.1429 7.09383 10.7937C7.09383 9.44444 7.09383 7.8254 7.09383 6.47619C7.09383 5.66667 7.09383 5.12698 7.09383 4.31746C7.09383 3.77778 6.82099 2.69841 7.09383 1.88889C7.6395 0.809524 10.3679 1.34921 11.4593 1.34921C12.2778 1.34921 12.8235 1.34921 13.642 1.61905C14.1877 1.61905 14.4605 1.61905 15.0062 1.88889C15.5519 2.42857 15.5518 2.42857 15.5518 2.96825C15.5518 5.93651 15.5519 8.63492 15.8247 11.6032C15.8247 12.6825 15.8247 13.7619 15.8247 14.8413C15.8247 16.1905 15.8247 17.5397 15.5518 18.8889C13.642 17 13.3691 14.3016 11.1864 12.6825ZM21.0086 32.1111C20.7358 32.381 20.1901 32.1111 19.6444 32.1111C18.8259 32.1111 18.0074 31.8413 17.4617 31.8413C15.5519 31.5714 13.642 31.5714 11.7321 31.5714C8.45802 31.5714 5.18395 31.8413 2.18272 32.381C1.63704 23.4762 1.63704 14.5714 1.3642 5.66667C1.90988 5.66667 2.18272 5.66667 2.72839 5.66667C2.72839 7.01587 3.00123 8.63492 3.00123 9.98413C3.00123 12.4127 3.00123 14.5714 3.27407 17C3.27407 21.5873 3.27407 25.9048 3.27407 30.4921C3.27407 31.0317 3.81975 31.3016 4.09259 31.0317C7.09383 30.2222 10.0951 30.2222 13.0963 30.2222C15.8247 30.2222 18.5531 30.2222 21.0086 31.3016C21.2815 31.8413 21.2815 31.8413 21.0086 32.1111ZM22.1 4.31746C24.5556 2.96825 27.5568 2.42857 30.2852 2.42857C31.9222 2.42857 33.5593 2.69841 34.9235 2.96825C36.2877 3.2381 38.1975 3.50794 39.2889 4.5873C40.9259 5.39683 40.3802 8.36508 40.3802 9.98413C40.3802 11.6032 40.3802 13.4921 40.3802 15.1111C40.3802 18.619 40.3802 21.8571 40.3802 25.3651C39.2889 25.3651 38.4704 25.3651 37.379 25.6349C36.8333 25.6349 36.0148 25.6349 35.4691 26.1746C34.9235 26.9841 35.1963 28.6032 35.742 29.6825C31.3765 28.3333 26.7383 28.873 22.6457 30.7619C23.4642 21.8571 21.8272 12.9524 22.1 4.31746ZM39.016 26.7143C38.1975 27.5238 37.379 28.3333 36.8333 29.4127C36.5605 28.3333 36.0148 27.254 36.5605 26.9841C37.1062 26.7143 38.1975 26.9841 38.4704 26.9841L39.016 26.7143ZM42.563 29.9524C42.563 30.7619 42.563 32.1111 41.7444 32.381C40.9259 32.6508 39.5617 32.1111 39.016 31.8413C37.1062 31.5714 35.4691 31.5714 33.5593 31.3016C30.0123 31.0317 26.4654 31.0317 22.9185 31.8413V31.5714C27.2839 29.4127 32.1951 29.1429 36.8333 31.0317C37.1062 31.0317 37.379 31.0317 37.379 30.7619C37.379 30.7619 37.6518 30.7619 37.6518 30.4921C38.7432 28.873 40.1074 27.5238 41.4716 26.1746C41.7444 25.9048 41.7444 25.9048 41.7444 25.6349C41.7444 21.5873 41.7444 17.2698 41.7444 13.2222C41.7444 11.0635 41.7444 8.90476 41.7444 6.74603C41.7444 6.20635 41.7444 5.93651 41.7444 5.39683C42.2901 5.39683 42.563 5.12698 43.1086 5.12698C42.8358 13.4921 42.8358 21.5873 42.563 29.9524Z" fill="#2B2722"/>
</g>
<defs>
<clipPath id="clip0">
<rect width="44.2" height="34" fill="white"/>
</clipPath>
</defs>
</svg>
