<svg width="42" height="38" viewBox="0 0 42 38" fill="none" xmlns="http://www.w3.org/2000/svg">
<g clip-path="url(#clip0)">
<path d="M1.91549 17.3347C4.76533 15.4516 7.38157 13.1339 9.62406 10.4783C11.9133 7.77434 13.782 4.7807 16.3982 2.36646C16.9122 1.88362 16.1647 1.11106 15.6508 1.59391C13.1279 3.95986 11.2592 6.90522 9.01672 9.51259C6.82094 12.2165 4.25142 14.4859 1.40159 16.369C0.794248 16.7553 1.35487 17.721 1.91549 17.3347Z" fill="#FF6000"/>
<path d="M2.66242 24.0464C8.96943 18.6385 15.2764 13.2306 20.9761 7.14678C22.6113 5.40854 24.153 3.67029 25.648 1.83548C26.0684 1.30435 25.3209 0.531791 24.9005 1.06292C19.6213 7.53306 13.5478 13.1824 7.28756 18.6385C5.51225 20.2319 3.73694 21.7287 1.91492 23.2738C1.40102 23.7567 2.14851 24.481 2.66242 24.0464Z" fill="#FF6000"/>
<path d="M3.17609 28.054C10.5576 21.9701 17.7056 15.6448 24.6666 9.07809C26.6755 7.19499 28.6377 5.31189 30.5999 3.3805C31.1138 2.89766 30.3663 2.1251 29.8524 2.60795C22.9848 9.31951 15.9303 15.7897 8.68888 22.0184C6.63326 23.8049 4.53093 25.5432 2.42859 27.2814C1.91469 27.716 2.66218 28.4885 3.17609 28.054Z" fill="#FF6000"/>
<path d="M7.28735 30.7094C10.9314 27.9089 14.3886 24.9152 17.6122 21.6319C20.6956 18.5417 23.6388 15.3066 26.8157 12.3612C28.6377 10.6713 30.5532 9.07788 32.6088 7.62934C33.1694 7.24306 32.6555 6.27737 32.0949 6.71193C24.9002 11.6852 19.4342 18.7831 12.9403 24.6255C10.9314 26.4121 8.87578 28.1503 6.77345 29.792C6.21282 30.1783 6.77345 31.144 7.28735 30.7094Z" fill="#FF6000"/>
<path d="M14.1556 30.5657C21.1634 24.9646 27.4236 18.4945 33.6839 11.9761C34.1511 11.4932 33.4036 10.7207 32.9364 11.2035C26.6762 17.722 20.4159 24.1921 13.4081 29.7931C12.8942 30.2277 13.6417 31.0002 14.1556 30.5657Z" fill="#FF6000"/>
<path d="M22.1444 30.2755C25.0877 27.2336 27.7974 23.9985 30.5538 20.7152C33.4036 17.3353 36.2534 13.907 39.1033 10.5271C39.5237 9.99599 38.823 9.22344 38.3558 9.75457C35.5059 13.1345 32.6561 16.5627 29.8063 19.9426C27.0966 23.1777 24.3402 26.461 21.3969 29.503C20.9297 30.0341 21.6772 30.8067 22.1444 30.2755Z" fill="#FF6000"/>
<path d="M28.4045 29.2125C30.6003 27.0397 32.6559 24.7221 34.5246 22.2113C36.2999 19.8453 37.7482 17.0931 39.9907 15.1617C40.5046 14.7271 39.7571 13.9546 39.2432 14.3891C37.0007 16.2722 35.5992 18.9762 33.8239 21.3421C31.9551 23.8529 29.8528 26.2189 27.6103 28.44C27.1431 28.9228 27.8906 29.6954 28.4045 29.2125Z" fill="#FF6000"/>
<path d="M34.7587 28.1985C37.1881 25.4946 39.4773 22.694 41.5796 19.7487C42.0001 19.1693 41.0657 18.6381 40.6919 19.2175C38.5896 22.0663 36.3938 24.8186 34.0112 27.4259C33.544 27.9571 34.2915 28.6813 34.7587 28.1985Z" fill="#FF6000"/>
<path d="M37.4209 28.4409C38.8225 27.4269 39.9905 26.1233 40.8781 24.6264C41.0183 24.385 40.9248 24.047 40.6912 23.9022C40.4576 23.7573 40.1306 23.8539 39.9904 24.0953C39.1962 25.4473 38.1217 26.6544 36.907 27.5235C36.6734 27.7166 36.58 28.0063 36.7201 28.2478C36.8603 28.4892 37.1873 28.5858 37.4209 28.4409Z" fill="#FF6000"/>
<path d="M3.12976 11.3962C3.08304 11.4444 3.03632 11.541 2.9896 11.5893C3.03632 11.541 2.9896 11.5893 2.9896 11.5893C2.94288 11.6376 2.94288 11.6376 2.89616 11.6859C2.80273 11.8307 2.70929 11.9273 2.61585 12.0721C2.42898 12.3136 2.19538 12.555 1.96179 12.7964C1.54132 13.2793 1.07414 13.7138 0.606953 14.1484C0.420078 14.3415 0.420078 14.7278 0.606953 14.9209C0.840546 15.1141 1.12086 15.1141 1.35445 14.9209C2.33554 14.0518 3.26991 13.0378 4.06413 11.9273C4.251 11.6859 4.11085 11.2996 3.87725 11.203C3.59694 11.0099 3.31663 11.1547 3.12976 11.3962Z" fill="#FF6000"/>
<path d="M10.8378 2.41484C9.90339 3.76681 8.87558 5.07049 7.89449 6.32589C7.70761 6.56732 7.66089 6.85703 7.89449 7.09845C8.08136 7.29159 8.45511 7.33987 8.64198 7.09845C9.71651 5.74648 10.791 4.39451 11.7721 2.94597C11.959 2.70455 11.8188 2.31827 11.5853 2.2217C11.3049 2.02856 11.0246 2.17342 10.8378 2.41484Z" fill="#FF6000"/>
<path d="M19.2479 1.73844C16.3047 4.73209 13.7819 8.06373 11.3992 11.5402C8.92313 15.1133 4.95205 17.1412 1.40144 19.3623C0.840815 19.7486 1.35472 20.666 1.91534 20.2797C5.41923 18.0586 9.39031 16.079 11.8664 12.6025C13.1278 10.8642 14.2958 9.02942 15.6506 7.33946C17.0054 5.6495 18.4537 4.00782 19.9487 2.51099C20.4626 2.02815 19.7151 1.25559 19.2479 1.73844Z" fill="#FF6000"/>
<path d="M11.5862 31.5299C11.633 31.6265 11.633 31.5782 11.5862 31.5299C11.5862 31.4334 11.5862 31.4334 11.5862 31.5299C11.5862 31.5299 11.5862 31.5299 11.5862 31.4816C11.5862 31.5299 11.5862 31.5299 11.5862 31.5299C11.5395 31.6265 11.5395 31.6265 11.5862 31.5299C11.5395 31.5782 11.5395 31.5782 11.5395 31.6265C11.4928 31.6748 11.4928 31.7231 11.4461 31.7714C11.3059 32.0128 11.1658 32.2059 10.9789 32.4473C10.6986 32.9302 10.3716 33.3647 10.0912 33.8476C9.95109 34.089 10.0445 34.4753 10.2781 34.5719C10.5584 34.7167 10.8387 34.6201 10.9789 34.3787C11.3059 33.8476 11.6797 33.3165 12.0067 32.8336C12.3337 32.3025 12.8476 31.6748 12.4739 31.0471C12.3337 30.8057 12.0067 30.7091 11.7731 30.8539C11.5395 30.9505 11.4461 31.2885 11.5862 31.5299Z" fill="#EAF0F4"/>
<path d="M12.053 33.8956C11.3522 34.7647 10.7449 35.7304 10.3244 36.7444C10.231 36.9858 10.231 37.3238 10.5113 37.4686C10.7449 37.6135 11.1187 37.5652 11.2121 37.2755C11.399 36.7927 11.6793 36.3098 11.9129 35.8752C12.053 35.6338 12.1932 35.4407 12.3333 35.2475C12.3801 35.1993 12.4268 35.151 12.4268 35.1027C12.4735 35.0544 12.4735 35.0544 12.5202 35.0061C12.5669 34.9578 12.4735 35.0544 12.5202 35.0061C12.6136 34.9096 12.7071 34.813 12.7538 34.6681C12.9407 34.4267 12.9874 34.0887 12.7538 33.8956C12.6136 33.7507 12.2399 33.7024 12.053 33.8956Z" fill="#EAF0F4"/>
<path d="M33.6374 29.2602C33.4506 29.6948 33.2637 30.081 33.0768 30.5156C33.0301 30.6605 32.9834 30.8053 33.0301 30.9502C33.0768 31.095 33.1702 31.1916 33.2637 31.2882C33.4038 31.3364 33.544 31.3847 33.6842 31.3364C33.8243 31.2882 33.9645 31.1916 34.0112 31.095C34.1981 30.6605 34.3849 30.2742 34.5718 29.8396C34.6185 29.6948 34.6653 29.5499 34.6185 29.4051C34.5718 29.2602 34.4784 29.1636 34.3849 29.0671C34.2448 29.0188 34.1046 28.9705 33.9645 29.0188C33.8243 29.0671 33.6842 29.1636 33.6374 29.2602Z" fill="#EAF0F4"/>
<path d="M34.1977 31.1435C33.824 32.3023 33.3568 33.4129 32.7494 34.5234C32.6093 34.7648 32.7027 35.1028 32.9363 35.2477C33.1699 35.3925 33.4969 35.296 33.6371 35.0545C34.2444 33.8957 34.7583 32.6886 35.1788 31.4332C35.2722 31.1435 35.0854 30.8055 34.8051 30.7572C34.5715 30.7089 34.2912 30.8538 34.1977 31.1435Z" fill="#EAF0F4"/>
<path d="M35.2728 35.1025C35.9268 35.1025 35.9736 34.0402 35.2728 34.0402C34.6187 33.9919 34.6187 35.1025 35.2728 35.1025Z" fill="#EAF0F4"/>
<path d="M9.53054 3.04006C14.6229 2.02608 19.8086 1.49495 24.9944 1.49495C26.2558 1.49495 27.5172 1.49495 28.7786 1.59152C29.2925 1.63981 29.8064 1.68809 30.1801 2.12265C30.5539 2.50893 30.7408 2.99178 30.8809 3.47462C31.7219 5.84057 32.2358 8.35137 32.4694 10.9105C32.5628 12.2141 32.6095 13.5178 32.5628 14.8215C32.5161 15.4009 32.4694 16.0286 32.4226 16.608C32.3759 17.1875 32.3292 17.8634 32.0022 18.3463C31.4415 19.1188 30.2269 19.0706 29.3859 19.1188C28.0778 19.1671 26.7697 19.2637 25.4616 19.312C22.8453 19.4568 20.2291 19.6017 17.6129 19.7465C16.3047 19.7948 14.9966 19.8914 13.6885 19.9397C13.0812 19.9397 12.4738 19.988 11.8198 19.9397C11.3526 19.9397 10.4649 20.0363 10.0912 19.6017C9.76414 19.1671 9.71742 18.298 9.62398 17.8152C9.48382 17.0909 9.34367 16.3666 9.25023 15.6906C9.01664 14.2421 8.9232 12.7936 8.82976 11.345C8.78305 9.84819 8.78305 8.35137 8.87648 6.85455C8.9232 6.13028 8.96992 5.40601 9.06336 4.68174C9.11008 4.29546 9.15679 3.90918 9.20351 3.52291C9.20351 3.42634 9.25023 3.32977 9.25023 3.2332C9.34367 2.99178 9.43711 3.08834 9.15679 3.04006C10.0444 3.18491 10.4182 1.78466 9.53054 1.63981C8.22242 1.39838 7.89539 2.75035 7.75524 3.81261C7.56836 5.30944 7.42821 6.75798 7.38149 8.2548C7.28805 11.2484 7.52164 14.2904 8.03555 17.2357C8.22242 18.3463 8.31586 19.988 9.15679 20.8088C9.62398 21.2434 10.2313 21.3399 10.8387 21.3882C11.5862 21.4365 12.3804 21.4848 13.1746 21.4365C16.1646 21.3882 19.2013 21.1468 22.1913 21.0019C23.6863 20.9054 25.1813 20.8571 26.6763 20.7605C28.0311 20.7122 29.4327 20.7122 30.7408 20.4708C31.862 20.2777 32.9365 19.7465 33.4037 18.5877C33.8709 17.3806 33.8709 15.8838 33.9176 14.6284C34.0111 11.683 33.7308 8.73765 33.03 5.88885C32.7029 4.58517 32.3759 3.2332 31.7686 2.07437C31.1612 0.867251 30.1334 0.33612 28.872 0.239551C25.6017 -0.0501569 22.238 0.142982 18.9677 0.384405C15.6507 0.625828 12.3804 1.10867 9.15679 1.78466C8.26914 1.83294 8.64289 3.2332 9.53054 3.04006Z" fill="#2B3A42"/>
<path d="M7.38141 10.2357C4.90533 9.89767 1.54159 9.70453 0.326905 12.5533C-0.280436 13.9536 0.0933123 15.6918 0.280187 17.1404C0.467061 18.782 0.653935 20.3754 0.887528 22.0171C1.12112 23.6588 1.40143 25.3005 1.68174 26.8939C1.91534 28.1975 2.05549 29.7909 3.27018 30.5635C3.8308 30.9015 4.48486 30.9981 5.13892 31.0946C5.93314 31.2395 6.77407 31.2878 7.56829 31.336C9.20344 31.4326 10.7919 31.4326 12.427 31.336C18.8742 30.9981 25.3681 30.4669 31.7685 29.7426C33.3569 29.5495 34.9454 29.3564 36.5338 29.1149C37.8419 28.9218 39.4304 28.9218 40.5049 28.0527C41.6261 27.1353 41.6729 25.4936 41.7663 24.1416C41.9064 22.5 41.9999 20.8583 41.9999 19.2166C41.9999 16.1264 41.9532 12.6016 40.0377 9.99424C38.496 7.86971 35.4126 6.71088 33.0766 8.20771C32.3291 8.69055 33.0299 9.94595 33.7774 9.46311C35.506 8.35256 37.7485 9.31825 38.9165 10.8634C40.4115 12.843 40.5516 15.5953 40.5983 18.0095C40.645 19.5063 40.5983 21.0031 40.5049 22.4517C40.4582 23.1759 40.4115 23.8519 40.318 24.5762C40.2713 25.1556 40.2246 25.8316 39.991 26.3627C39.5238 27.4733 37.7952 27.425 36.8141 27.5698C35.4126 27.763 33.9643 27.9561 32.5627 28.1493C26.9098 28.8252 21.2568 29.2598 15.6039 29.6461C12.8475 29.8392 10.0444 30.0324 7.24126 29.8392C6.54048 29.7909 5.88642 29.6944 5.18564 29.5978C4.62502 29.5012 3.92424 29.4047 3.59721 28.8735C3.31689 28.3907 3.22346 27.7147 3.13002 27.1353C2.98986 26.411 2.84971 25.6867 2.75627 24.9142C2.19565 21.6791 1.77518 18.444 1.49487 15.1607C1.44815 14.4364 1.308 13.6156 1.63503 12.9396C1.86862 12.5533 2.3358 12.167 2.84971 11.8773C4.11111 11.2014 5.65282 11.4428 7.00766 11.6359C7.38141 11.6842 7.75516 11.5393 7.8486 11.1531C7.94203 10.8151 7.75516 10.2839 7.38141 10.2357Z" fill="#2B3A42"/>
<path d="M9.48415 15.1618C13.0815 13.4718 17.0058 12.8924 20.8835 12.6993C22.8457 12.6027 24.7611 12.6027 26.7233 12.6027C28.5453 12.6027 30.5075 12.5544 32.1427 13.5684C32.9369 14.0513 33.6377 12.7959 32.8434 12.313C31.1149 11.299 29.1527 11.2025 27.1905 11.1542C25.0882 11.1542 22.9391 11.1542 20.8368 11.2507C16.6788 11.4439 12.5209 12.1199 8.73665 13.9064C7.94244 14.2927 8.64321 15.5481 9.48415 15.1618Z" fill="#2B3A42"/>
<path d="M9.34381 31.2891C9.34381 32.3514 9.34381 33.4619 9.34381 34.5242C9.34381 35.0553 9.34381 35.5864 9.34381 36.1176C9.34381 36.6487 9.25037 37.2764 9.67084 37.7109C10.0446 38.0972 10.6519 38.0007 11.1658 38.0007C11.633 38.0007 12.1469 38.0007 12.6141 38.0007C13.2214 37.9524 13.6419 37.5661 13.6886 36.9384C13.7354 36.4073 13.6419 35.8761 13.6419 35.3933C13.5952 34.1379 13.5485 32.9308 13.5018 31.6754C13.5018 31.2891 13.1747 30.9511 12.801 30.9511C12.4272 30.9511 12.1002 31.2891 12.1002 31.6754C12.1469 32.8342 12.1936 33.993 12.2404 35.1519C12.2404 35.4416 12.2404 35.7313 12.2871 35.9727C12.2871 36.1176 12.2871 36.3107 12.2871 36.4555C12.2871 36.5521 12.2871 36.697 12.2871 36.7935C12.2871 36.8901 12.2871 36.8901 12.2871 36.8418C12.6608 36.6487 12.7543 36.5521 12.5207 36.5521C12.4272 36.5521 12.2871 36.5521 12.1936 36.5521C11.9133 36.5521 11.633 36.5521 11.3527 36.5521C11.2125 36.5521 11.0724 36.5521 10.979 36.5521C10.8388 36.5521 10.6519 36.5038 10.5118 36.5521C10.4651 36.5521 10.4651 36.5521 10.4183 36.5521C10.5585 36.6004 10.6519 36.697 10.6986 36.8901C10.7454 36.7935 10.6986 36.5038 10.6986 36.4555C10.6986 35.8761 10.6986 35.345 10.6986 34.7656C10.6986 33.6068 10.6986 32.4479 10.6986 31.2891C10.7454 30.3234 9.34381 30.3234 9.34381 31.2891Z" fill="#2B3A42"/>
<path d="M31.582 29.3086C31.9557 31.0469 32.2827 32.7851 32.6565 34.4751C32.7966 35.2476 33.077 36.165 34.058 36.1168C34.4785 36.1168 34.899 35.9236 35.3194 35.8271C35.7399 35.7305 36.1604 35.5856 36.5808 35.4891C37.0013 35.3925 37.2349 34.8131 37.0013 34.4268C35.9268 32.7368 35.4129 30.7089 35.5063 28.6809C35.5063 28.2947 35.1793 27.9567 34.8055 27.9567C34.4318 27.9567 34.1048 28.2947 34.1048 28.6809C33.9646 30.9503 34.5719 33.268 35.7866 35.1511C35.9268 34.8131 36.0669 34.4268 36.2071 34.0888C35.5063 34.2819 34.8523 34.4751 34.1515 34.6199C33.8712 34.6682 34.2449 34.6682 34.1982 34.7648C34.1982 34.7648 34.1515 34.5234 34.1048 34.4751C34.0113 34.0888 33.9646 33.7025 33.8712 33.3163C33.5909 31.8677 33.2638 30.3709 32.9835 28.9224C32.8901 28.5361 32.4696 28.2947 32.1426 28.4395C31.6754 28.5361 31.4885 28.9224 31.582 29.3086Z" fill="#2B3A42"/>
</g>
<defs>
<clipPath id="clip0">
<rect width="42" height="38" fill="white" transform="translate(0 0.00012207)"/>
</clipPath>
</defs>
</svg>
