<svg width="26" height="26" viewBox="0 0 26 26" fill="none" xmlns="http://www.w3.org/2000/svg">
<g clip-path="url(#clip0)">
<path fill-rule="evenodd" clip-rule="evenodd" d="M5.15797 18.8776C5.08779 19.2925 5.01762 19.742 4.91235 20.1569C4.80709 20.5372 4.63165 20.9175 4.63165 21.2978C4.63165 21.5744 4.98253 21.609 5.12288 21.4016C5.36849 21.0558 5.43867 20.5718 5.50884 20.1914C5.57902 19.7766 5.6492 19.3617 5.68428 18.9122C5.75446 18.6356 5.22814 18.5664 5.15797 18.8776Z" fill="#EAF0F4"/>
<path fill-rule="evenodd" clip-rule="evenodd" d="M6.38596 16.8032C6.21052 18.1516 5.82455 19.4655 5.71929 20.7793C5.6842 21.1596 6.24561 21.1596 6.35087 20.8484C6.80701 19.6038 6.8421 18.1516 6.94736 16.8378C6.98245 16.5266 6.42104 16.4921 6.38596 16.8032Z" fill="#EAF0F4"/>
<path fill-rule="evenodd" clip-rule="evenodd" d="M7.50885 15.9044C7.40359 17.1837 7.19306 18.4975 7.26324 19.7768C7.29832 20.1225 7.85973 20.2262 7.9299 19.8459C8.17552 18.5667 8.10534 17.1837 8.17552 15.8699C8.17552 15.455 7.54394 15.4895 7.50885 15.9044Z" fill="#EAF0F4"/>
<path fill-rule="evenodd" clip-rule="evenodd" d="M9.01751 14.0373C8.87716 15.5586 8.70172 17.1144 8.7719 18.6357C8.80698 19.0852 9.43857 19.0506 9.47365 18.6357C9.61401 17.1144 9.54383 15.5931 9.61401 14.0719C9.61401 13.657 9.0526 13.657 9.01751 14.0373Z" fill="#EAF0F4"/>
<path fill-rule="evenodd" clip-rule="evenodd" d="M10.9473 12.1704C10.9824 11.7555 10.3157 11.79 10.2806 12.1704C10.1403 14.0374 9.71923 16.2156 10.1052 18.048C10.1754 18.3938 10.7017 18.3592 10.7719 18.048C11.1578 16.181 10.8771 14.072 10.9473 12.1704Z" fill="#EAF0F4"/>
<path fill-rule="evenodd" clip-rule="evenodd" d="M12.421 10.6489C12.421 10.1649 11.6491 10.1649 11.6491 10.6835C11.7193 12.5159 11.7544 14.3484 11.6842 16.1808C11.6491 16.6649 12.421 16.6649 12.4561 16.1463C12.5263 14.3138 12.4561 12.4814 12.421 10.6489Z" fill="#EAF0F4"/>
<path fill-rule="evenodd" clip-rule="evenodd" d="M13.7544 8.95487C13.7544 8.6437 13.2632 8.6437 13.2632 8.95487C13.2632 10.9948 13.0526 13.1038 13.2281 15.1091C13.2632 15.524 13.8246 15.4894 13.8597 15.1091C14.0351 13.0692 13.7895 10.9948 13.7544 8.95487Z" fill="#EAF0F4"/>
<path fill-rule="evenodd" clip-rule="evenodd" d="M15.1579 7.81384C15.1579 7.46809 14.6316 7.50267 14.6316 7.81384C14.6316 9.75001 14.5614 11.6862 14.6667 13.5878C14.7018 14.0372 15.3685 14.0027 15.3685 13.5878C15.3685 11.6516 15.2281 9.71543 15.1579 7.81384Z" fill="#EAF0F4"/>
<path fill-rule="evenodd" clip-rule="evenodd" d="M16.3509 6.50008C16.3159 6.11976 15.7545 6.11976 15.7545 6.50008C15.8246 8.53998 15.7194 10.649 15.965 12.6543C16.0352 13.0692 16.5966 13.0692 16.6316 12.6543C16.8071 10.649 16.5264 8.5054 16.3509 6.50008Z" fill="#EAF0F4"/>
<path fill-rule="evenodd" clip-rule="evenodd" d="M17.6141 5.28995C17.579 4.9442 17.0176 4.9442 17.0176 5.28995C17.158 7.26069 17.1229 9.26601 17.3685 11.2368C17.4387 11.7208 18.1054 11.7208 18.1054 11.2022C18.1755 9.26601 17.8597 7.26069 17.6141 5.28995Z" fill="#EAF0F4"/>
<path fill-rule="evenodd" clip-rule="evenodd" d="M19.1229 4.49465C19.0527 4.11433 18.4562 4.11433 18.4913 4.49465C18.5966 5.42816 18.6667 6.3271 18.7018 7.26061C18.7369 8.0904 18.7018 8.92018 18.8773 9.7154C18.9474 9.99199 19.4387 9.99199 19.4738 9.7154C19.8246 8.05582 19.3334 6.08508 19.1229 4.49465Z" fill="#EAF0F4"/>
<path fill-rule="evenodd" clip-rule="evenodd" d="M20.4912 2.83525C20.4211 2.48951 19.8948 2.66238 19.9298 3.00812C20.2456 4.73684 20.2807 6.46557 20.386 8.22886C20.4211 8.74748 21.193 8.71291 21.193 8.19429C21.2281 6.39642 20.8772 4.56397 20.4912 2.83525Z" fill="#EAF0F4"/>
<path fill-rule="evenodd" clip-rule="evenodd" d="M22.1052 2.282C22.035 1.90169 21.4385 1.90169 21.4736 2.282C21.6841 3.907 21.5438 5.60115 21.8596 7.19158C21.9297 7.50275 22.4911 7.50275 22.5262 7.19158C22.7367 5.60115 22.3508 3.87243 22.1052 2.282Z" fill="#EAF0F4"/>
<path fill-rule="evenodd" clip-rule="evenodd" d="M23.4737 1.17563C23.4035 0.760738 22.807 0.968184 22.8772 1.3485C22.9825 2.07457 23.0877 2.80063 23.1579 3.5267C23.193 4.11446 23.193 4.70223 23.3333 5.28999C23.4035 5.60116 23.9298 5.60116 23.9649 5.28999C24.1404 3.97616 23.7193 2.45489 23.4737 1.17563Z" fill="#EAF0F4"/>
<path fill-rule="evenodd" clip-rule="evenodd" d="M24.7017 0.622454C24.5614 0.20756 23.8947 0.415007 24.035 0.8299C24.2105 1.27937 24.3157 1.72884 24.3859 2.1783C24.421 2.5932 24.3859 3.00809 24.5263 3.38841C24.6315 3.73416 25.1228 3.69958 25.1929 3.38841C25.4035 2.55862 24.9824 1.38309 24.7017 0.622454Z" fill="#EAF0F4"/>
<path fill-rule="evenodd" clip-rule="evenodd" d="M2.59655 18.7047C2.52638 18.4281 2.49129 18.117 2.42111 17.8404C2.35094 17.5292 1.82462 17.5984 1.85971 17.9441C1.8948 18.2207 1.96497 18.5319 2.00006 18.8085C2.03515 19.0851 2.03515 19.3271 2.21059 19.5C2.31585 19.6037 2.52638 19.5691 2.59655 19.4308C2.7369 19.1888 2.63164 18.9813 2.59655 18.7047Z" fill="#FF6000"/>
<path fill-rule="evenodd" clip-rule="evenodd" d="M3.78945 18.6356C3.68418 18.2553 3.57892 17.875 3.50874 17.4601C3.43857 17.0798 2.87717 17.2526 2.94734 17.6329C3.01752 18.0133 3.08769 18.4282 3.19295 18.8085C3.26313 19.1542 3.33331 19.5691 3.54383 19.8803C3.71927 20.1223 4.10523 20.0186 4.10523 19.7074C4.07015 19.3617 3.89471 19.0159 3.78945 18.6356Z" fill="#FF6000"/>
<path fill-rule="evenodd" clip-rule="evenodd" d="M4.98234 18.2206C4.91217 17.9094 4.84199 17.5637 4.77182 17.2525C4.70164 16.9068 4.17532 17.0796 4.2455 17.3908C4.31568 17.702 4.35076 18.0477 4.42094 18.3589C4.45603 18.6355 4.45603 18.9121 4.59638 19.1195C4.70164 19.2924 4.98234 19.2578 5.05252 19.0504C5.15778 18.8084 5.05252 18.4972 4.98234 18.2206Z" fill="#FF6000"/>
<path fill-rule="evenodd" clip-rule="evenodd" d="M6.77191 22.335C6.66664 21.9547 6.63156 21.5398 6.56138 21.1249C6.52629 20.8137 6.03506 20.8137 6.07015 21.1249C6.14033 21.851 6.2105 22.8191 6.59647 23.4068C6.70173 23.5797 7.01752 23.5106 6.98243 23.3031C7.01752 22.9919 6.87717 22.6462 6.77191 22.335Z" fill="#FF6000"/>
<path fill-rule="evenodd" clip-rule="evenodd" d="M8.10518 22.5426C7.92974 21.8165 7.7543 21.125 7.57886 20.4335C7.4736 20.0878 6.98237 20.2606 7.05255 20.6064C7.1929 21.2633 7.36834 21.9202 7.4736 22.6117C7.61395 23.2686 7.64904 23.9947 7.89465 24.5825C7.99992 24.8591 8.42097 24.8245 8.42097 24.5133C8.49114 23.8218 8.24553 23.1649 8.10518 22.5426Z" fill="#FF6000"/>
<path fill-rule="evenodd" clip-rule="evenodd" d="M8.66673 20.8139C8.59655 20.5718 8.56146 20.2952 8.49129 20.0532C8.42111 19.6729 7.85971 19.8458 7.92988 20.2261C8.03515 20.6756 8.03515 21.2633 8.28076 21.6782C8.42111 21.9202 8.77199 21.7819 8.77199 21.5399C8.80708 21.2979 8.7369 21.0559 8.66673 20.8139Z" fill="#FF6000"/>
<path fill-rule="evenodd" clip-rule="evenodd" d="M3.50882 8.4707C3.36847 8.05581 3.15794 7.64091 2.98251 7.22602C2.84216 6.91485 2.31584 7.05315 2.45619 7.39889C2.63163 7.81379 2.77198 8.29783 2.98251 8.71272C3.15794 9.02389 3.61409 8.78187 3.50882 8.4707Z" fill="#FF6000"/>
<path fill-rule="evenodd" clip-rule="evenodd" d="M4.77185 7.84846C4.59642 7.36442 4.42098 6.91495 4.24554 6.43091C4.10519 6.08516 3.54378 6.22346 3.64905 6.60378C3.92975 7.50272 4.14027 8.64367 4.73677 9.36974C4.87712 9.54261 5.22799 9.40431 5.19291 9.16229C5.15782 8.67825 4.94729 8.26335 4.77185 7.84846Z" fill="#FF6000"/>
<path fill-rule="evenodd" clip-rule="evenodd" d="M5.64912 6.43091C5.47368 6.08516 4.91227 6.22346 5.05263 6.60378C5.26315 7.1224 5.47368 7.64101 5.64912 8.15963C5.82456 8.64367 5.92982 9.16229 6.21052 9.57718C6.35087 9.8192 6.80701 9.71548 6.77192 9.40431C6.66666 8.43622 6.07017 7.32984 5.64912 6.43091Z" fill="#FF6000"/>
<path fill-rule="evenodd" clip-rule="evenodd" d="M8.0001 8.43612C7.78958 7.88292 7.57905 7.32973 7.36852 6.77654C7.22817 6.39622 6.66677 6.56909 6.77203 6.94941C7.12291 8.0558 7.40361 9.33505 7.96502 10.3377C8.17554 10.6835 8.63168 10.4069 8.56151 10.0611C8.45624 9.5425 8.17554 8.95473 8.0001 8.43612Z" fill="#FF6000"/>
<path fill-rule="evenodd" clip-rule="evenodd" d="M8.98248 6.77667C8.84212 6.43093 8.28072 6.56922 8.38598 6.94954C8.77195 8.12507 8.98248 9.47348 9.50879 10.6144C9.64914 10.9256 10.1755 10.7527 10.1404 10.4416C10.0351 9.19688 9.40353 7.91763 8.98248 6.77667Z" fill="#FF6000"/>
<path fill-rule="evenodd" clip-rule="evenodd" d="M10.5965 6.49998C10.4562 6.15424 9.92985 6.32711 10.0351 6.67286C10.2807 7.36435 10.5263 8.05584 10.7369 8.74732C10.9123 9.36967 11.0527 10.0612 11.3685 10.6489C11.5088 10.9255 12 10.7872 11.9649 10.476C11.8246 9.16222 11.0877 7.71009 10.5965 6.49998Z" fill="#FF6000"/>
<path fill-rule="evenodd" clip-rule="evenodd" d="M12.8773 7.84835C12.7369 7.43346 12.5966 7.01856 12.4913 6.60367C12.351 6.18878 11.7545 6.39622 11.8597 6.77654C11.965 7.19144 12.1053 7.60633 12.2106 8.02122C12.3159 8.40154 12.351 8.85101 12.6317 9.16218C12.8422 9.4042 13.1931 9.30048 13.1931 8.98931C13.2282 8.60899 13.0176 8.1941 12.8773 7.84835Z" fill="#FF6000"/>
<path fill-rule="evenodd" clip-rule="evenodd" d="M14.1404 7.19153C14.0351 6.91494 13.9298 6.63834 13.8246 6.36175C13.6842 5.98143 13.1228 6.1543 13.2281 6.53462C13.2983 6.81122 13.4035 7.08781 13.4737 7.39898C13.5439 7.67558 13.6141 7.98675 13.7544 8.1942C13.9298 8.43622 14.3509 8.33249 14.3509 8.02132C14.386 7.74473 14.2456 7.46813 14.1404 7.19153Z" fill="#FF6000"/>
<path fill-rule="evenodd" clip-rule="evenodd" d="M18.5264 23.4413C17.7545 20.0876 16.8422 16.7339 16.0001 13.4147C15.9299 13.1035 15.4387 13.2418 15.5089 13.553C16.2457 16.9413 16.9124 20.3296 17.8597 23.6488C18.0001 24.0637 18.6317 23.8562 18.5264 23.4413Z" fill="#FF6000"/>
<path fill-rule="evenodd" clip-rule="evenodd" d="M17.0176 12.4123C16.9123 12.1011 16.4211 12.2394 16.4913 12.5506C17.4035 15.9389 18.1053 19.3963 18.7018 22.8538C18.8071 23.3724 19.579 23.1304 19.5088 22.6117C18.8772 19.1889 18.0351 15.8006 17.0176 12.4123Z" fill="#FF6000"/>
<path fill-rule="evenodd" clip-rule="evenodd" d="M19.5088 15.3857C19.1228 14.1065 18.7369 12.7926 18.3158 11.5134C18.1755 11.0639 17.5088 11.2714 17.6141 11.7208C17.8948 12.7235 18.1404 13.7261 18.4211 14.7288C18.6667 15.6969 19.0877 16.7341 19.2281 17.7022C19.2632 18.0825 19.8246 18.29 20.0351 17.9096C20.3509 17.2182 19.6842 16.0081 19.5088 15.3857Z" fill="#FF6000"/>
<path fill-rule="evenodd" clip-rule="evenodd" d="M19.6842 11.4443C19.5438 11.0986 19.4035 10.7874 19.2631 10.4762C19.0877 10.1305 18.4561 10.4071 18.6316 10.7528C18.7719 11.064 18.9123 11.3751 19.0175 11.7209C19.1228 12.0321 19.193 12.3432 19.4035 12.5507C19.5789 12.689 19.8245 12.6198 19.8947 12.4124C20 12.1012 19.8245 11.79 19.6842 11.4443Z" fill="#FF6000"/>
<path fill-rule="evenodd" clip-rule="evenodd" d="M25.1934 0.0682769C24.2461 -0.242893 22.9829 0.448596 22.2461 0.932639C21.9303 1.14009 21.6496 1.34753 21.3689 1.55498C21.2987 1.55498 21.2636 1.55498 21.1934 1.58955C20.1759 2.38477 19.1583 3.21455 18.1759 4.04434C17.4741 4.56296 16.7724 5.11615 16.1759 5.73849C13.5443 5.94594 10.9127 6.11881 8.31624 6.04966C6.45659 5.98051 4.10571 5.21987 2.52676 6.5337C2.1408 6.87945 1.50922 7.50179 1.64957 8.08955C1.78992 8.81562 2.9829 8.91934 3.50922 9.05764C5.96536 9.7837 8.4215 10.4752 10.9127 11.1321C10.7022 11.3741 10.4566 11.6507 10.2461 11.8927C8.91273 13.4486 7.61448 15.039 6.38641 16.6986C6.35132 16.6986 6.28115 16.664 6.24606 16.664C4.17588 16.7677 1.89518 16.5949 0.210972 17.7704C-0.0346423 17.9433 -0.104818 18.3582 0.24606 18.531C1.47413 19.1534 2.52676 19.9486 3.68466 20.6401C3.40395 21.4007 3.47413 22.0576 4.4215 22.2305C4.66711 22.2651 4.91273 22.2305 5.15834 22.0922C5.89518 23.0603 6.84255 24.3741 7.05308 25.5497C7.08817 25.7917 7.33378 26.1029 7.64957 25.9646C8.59694 25.5497 8.77238 24.5816 8.94781 23.6826C9.26361 22.2651 9.33378 20.7784 9.2636 19.3263C9.2636 19.2917 9.2636 19.2917 9.2636 19.2571C9.57939 19.0151 9.93027 18.7731 10.2461 18.531C11.6847 17.4247 13.0882 16.2837 14.4215 15.1082C15.0882 17.3209 15.7899 19.5337 16.4917 21.7465C16.6671 22.3688 16.8075 23.8555 17.5092 24.1667C18.0355 24.3741 18.7373 23.8555 19.0882 23.5098C20.4917 22.1614 20.0706 19.5683 20.0706 17.8396C20.1057 15.281 20.0355 12.7571 19.9303 10.1986C19.9303 10.164 19.9303 10.1294 19.8952 10.0949C20.7022 9.36881 21.4741 8.60817 22.2812 7.88211C23.9654 6.32626 25.6496 4.49381 25.9303 2.14275C26.0355 1.34753 26.0706 0.344873 25.1934 0.0682769ZM5.54431 8.81562C5.05308 8.67732 4.52676 8.50445 4.03553 8.36615C3.8601 8.33158 2.56185 8.05498 2.52676 7.91668C2.31624 7.15604 4.1408 6.70657 4.56185 6.70657C5.40396 6.672 6.24606 6.87945 7.08817 6.91402C8.1408 6.98317 9.19343 6.98317 10.2461 6.98317C11.8952 6.9486 13.5092 6.84487 15.1583 6.74115C13.8601 7.95126 12.5969 9.23051 11.3689 10.5443C11.3338 10.5098 11.2636 10.4752 11.1934 10.4406C9.33378 9.922 7.43904 9.36881 5.54431 8.81562ZM4.07062 19.8103C3.15834 19.2917 2.28115 18.6693 1.36887 18.1162C2.66711 17.5284 4.28115 17.5284 5.71974 17.4938C5.68466 17.563 5.64957 17.5975 5.61448 17.6667C5.36887 17.9779 4.59694 18.8768 4.07062 19.8103ZM8.21097 22.5417C8.1408 23.0257 8.07062 24.0975 7.75483 24.7199C7.36887 23.6135 6.59694 22.5763 5.89518 21.6773C6.28115 21.4007 6.63203 21.0896 6.91273 20.9167C7.40396 20.5709 7.89518 20.2598 8.35132 19.914C8.38641 20.813 8.31624 21.6773 8.21097 22.5417ZM19.0531 21.6427C18.9478 22.1959 18.7373 22.5417 18.3513 22.9566C18.211 23.0949 18.0355 23.2332 17.9303 23.3715C17.8601 23.1294 17.7899 22.8529 17.6847 22.6108C17.404 21.7465 17.1583 20.8475 16.8776 19.9832C16.3162 18.1161 15.7548 16.2837 15.1934 14.4167C15.5443 14.1055 15.8952 13.7943 16.2461 13.4832C17.2285 12.5842 18.211 11.6507 19.1934 10.7518C19.2285 12.5151 19.2285 14.313 19.2285 16.0763C19.1934 17.8741 19.3689 19.8449 19.0531 21.6427ZM25.0882 1.9353C25.018 2.59221 24.8075 3.21455 24.5268 3.80232C23.5794 5.70392 21.825 7.12147 20.2812 8.53902C18.632 10.0603 17.018 11.5816 15.3689 13.1029C13.7548 14.5896 12.1057 15.9725 10.3864 17.3209C9.61448 17.9433 8.80746 18.531 8.00045 19.1188C7.57939 19.3954 7.19343 19.7066 6.77238 19.9832C6.31624 20.2943 5.75483 20.813 5.22852 21.0204C4.91273 21.0896 4.56185 21.6427 4.59694 20.6747C4.59694 20.5709 4.94781 20.1215 4.9829 20.0869C5.22852 19.7066 5.50922 19.3263 5.78992 18.9114C6.45659 17.9779 7.12325 17.0789 7.78992 16.1454C9.01799 14.555 10.2811 12.9991 11.6145 11.5124C13.1583 9.81828 14.7373 8.12413 16.4215 6.49913C16.4917 6.46455 16.5268 6.42998 16.5619 6.36083C17.1233 5.84221 17.6847 5.3236 18.2461 4.80498C19.2636 4.04434 20.3864 3.35285 21.3689 2.59221C22.1057 2.0736 22.9127 1.41668 23.8952 1.07094C24.3162 0.932639 24.3162 0.932639 24.7373 1.14009C25.2285 1.41668 25.1233 1.45126 25.0882 1.9353Z" fill="#2B3A42"/>
</g>
<defs>
<clipPath id="clip0">
<rect width="26" height="26" fill="white"/>
</clipPath>
</defs>
</svg>
