<?xml version="1.0" encoding="utf-8"?>
<!-- Generator: Adobe Illustrator 25.4.1, SVG Export Plug-In . SVG Version: 6.00 Build 0)  -->
<svg version="1.1" id="katman_1" xmlns="http://www.w3.org/2000/svg" xmlns:xlink="http://www.w3.org/1999/xlink" x="0px" y="0px"
	 viewBox="0 0 627 569" style="enable-background:new 0 0 627 569;" xml:space="preserve">
<style type="text/css">
	.st0{fill:#EAEFF4;}
	.st1{fill:#EC621C;}
	.st2{fill:#2B3A42;}
</style>
<g>
	<path class="st0" d="M185.6,250.9c-8.4,8.4-16.7,16.7-25.1,25.1c-5.4,5.4,3,13.8,8.4,8.4c8.4-8.4,16.7-16.7,25.1-25.1
		C199.5,253.9,191.1,245.5,185.6,250.9L185.6,250.9z"/>
	<path class="st0" d="M372.5,146.9c-8.4,8.4-16.7,16.7-25.1,25.1c-5.4,5.4,3,13.8,8.4,8.4c8.4-8.4,16.7-16.7,25.1-25.1
		C386.4,149.9,377.9,141.4,372.5,146.9L372.5,146.9z"/>
	<path class="st0" d="M356.2,126.7c-18.4,18.5-36.8,37-55.1,55.5c-5.4,5.4,3,13.9,8.4,8.4c18.4-18.5,36.8-37,55.1-55.5
		C370,129.7,361.6,121.3,356.2,126.7L356.2,126.7z"/>
	<path class="st0" d="M325.7,107.1c-26.5,26.5-53,53-79.6,79.5c-5.4,5.4,3,13.8,8.4,8.4c26.5-26.5,53-53,79.6-79.5
		C339.6,110.1,331.1,101.7,325.7,107.1L325.7,107.1z"/>
	<path class="st0" d="M299,104.9c-10.5,10.4-21,20.8-31.5,31.1c-5.5,5.4,3,13.8,8.4,8.4c10.5-10.4,21-20.8,31.5-31.1
		C312.9,107.9,304.4,99.5,299,104.9L299,104.9z"/>
	<path class="st0" d="M270.1,81.5c-13.9,13.8-27.9,27.7-41.8,41.5c-5.4,5.4,3,13.8,8.4,8.4c13.9-13.8,27.9-27.7,41.8-41.5
		C283.9,84.5,275.5,76.1,270.1,81.5L270.1,81.5z"/>
	<path class="st0" d="M162.7,234.5c-7.3,7.3-14.5,14.5-21.8,21.8c-5.4,5.4,3,13.8,8.4,8.4c7.3-7.3,14.5-14.5,21.8-21.8
		C176.5,237.5,168.1,229.1,162.7,234.5L162.7,234.5z"/>
	<path class="st0" d="M73.1,366.7c7.9-7.4,15.5-15,22.9-22.9c5.2-5.6-3.2-14.1-8.4-8.4c-7.3,7.9-15,15.6-22.9,22.9
		C59.1,363.5,67.5,371.9,73.1,366.7L73.1,366.7z"/>
	<path class="st0" d="M97.6,374.3c25.2-25.2,50.5-50.5,75.7-75.7c5.4-5.4-3-13.8-8.4-8.4c-25.2,25.2-50.5,50.5-75.7,75.7
		C83.8,371.3,92.2,379.7,97.6,374.3L97.6,374.3z"/>
	<path class="st0" d="M129.2,378.1c32-32,63.9-63.9,95.9-95.9c5.4-5.4-3-13.8-8.4-8.4c-32,32-63.9,63.9-95.9,95.9
		C115.3,375.1,123.7,383.5,129.2,378.1L129.2,378.1z"/>
	<path class="st0" d="M160.3,388.5c31.2-31.2,62.5-62.5,93.7-93.7c5.4-5.4-3-13.8-8.4-8.4c-31.2,31.2-62.5,62.5-93.7,93.7
		C146.4,385.5,154.8,393.9,160.3,388.5L160.3,388.5z"/>
	<path class="st0" d="M196.8,391.2c26-26,51.9-51.9,77.9-77.9c5.4-5.4-3-13.8-8.4-8.4c-26,26-51.9,51.9-77.9,77.9
		C182.9,388.2,191.3,396.6,196.8,391.2L196.8,391.2z"/>
	<path class="st0" d="M231.1,396.7c28.7-28.7,57.3-57.5,86-86.2c5.4-5.4-3-13.9-8.4-8.4c-28.7,28.7-57.3,57.5-86,86.2
		C217.3,393.7,225.7,402.1,231.1,396.7L231.1,396.7z"/>
	<path class="st0" d="M276.3,394.5c24.7-24.7,49.4-49.4,74.1-74.1c5.4-5.4-3-13.8-8.4-8.4c-24.7,24.7-49.4,49.4-74.1,74.1
		C262.5,391.5,270.9,399.9,276.3,394.5L276.3,394.5z"/>
	<path class="st0" d="M321.5,394.5c25.4-25.4,50.9-50.9,76.3-76.3c5.4-5.4-3-13.8-8.4-8.4c-25.4,25.4-50.9,50.9-76.3,76.3
		C307.7,391.5,316.1,399.9,321.5,394.5L321.5,394.5z"/>
	<path class="st0" d="M410.2,322.4c-22.9,22.9-45.8,45.7-68.7,68.6c-5.4,5.4,3,13.8,8.4,8.4c22.9-22.9,45.8-45.7,68.7-68.6
		C424.1,325.4,415.7,317,410.2,322.4L410.2,322.4z"/>
	<path class="st0" d="M440.2,331.6c-13.8,14-27.7,27.9-41.5,41.9c-5.4,5.4,3,13.9,8.4,8.4c13.8-14,27.7-27.9,41.5-41.9
		C454,334.6,445.6,326.2,440.2,331.6L440.2,331.6z"/>
	<path class="st0" d="M478.8,333.8c-5.1,5.2-10.2,10.5-15.3,15.7c-5.3,5.5,3.1,13.9,8.4,8.4c5.1-5.2,10.2-10.5,15.3-15.7
		C492.5,336.7,484.1,328.3,478.8,333.8L478.8,333.8z"/>
	<path class="st1" d="M81.3,380.9c-4.1,4.1-8.2,8.2-12.3,12.3c-5.4,5.4,3,13.8,8.4,8.4c4.1-4.1,8.2-8.2,12.3-12.3
		C95.1,383.9,86.7,375.5,81.3,380.9L81.3,380.9z"/>
	<path class="st1" d="M106,417.9c1.4-1.4,2.7-2.7,4.1-4.1c2.2-2.2,2.4-6.2,0-8.4c-2.4-2.2-6.1-2.4-8.4,0c-1.4,1.4-2.7,2.7-4.1,4.1
		c-2.2,2.2-2.4,6.2,0,8.4C100,420.1,103.7,420.3,106,417.9L106,417.9z"/>
	<path class="st1" d="M127.3,432.6c9.3-9.3,18.5-18.5,27.8-27.8c5.4-5.4-3-13.8-8.4-8.4c-9.3,9.3-18.5,18.5-27.8,27.8
		C113.5,429.6,121.9,438,127.3,432.6L127.3,432.6z"/>
	<path class="st1" d="M147.7,446.5c13.6-13.6,27.2-27.2,40.9-40.9c5.4-5.4-3-13.8-8.4-8.4c-13.6,13.6-27.2,27.2-40.9,40.9
		C133.9,443.5,142.3,451.9,147.7,446.5L147.7,446.5z"/>
	<path class="st1" d="M173.9,455.5c15-15,30-30,45-45c5.4-5.4-3-13.8-8.4-8.4c-15,15-30,30-45,45C160,452.5,168.5,460.9,173.9,455.5
		L173.9,455.5z"/>
	<path class="st1" d="M205.8,467.8c18.5-18.5,37.1-37.1,55.6-55.6c5.4-5.4-3-13.8-8.4-8.4c-18.5,18.5-37.1,37.1-55.6,55.6
		C191.9,464.8,200.3,473.2,205.8,467.8L205.8,467.8z"/>
	<path class="st1" d="M236.8,476.8c22.6-22.6,45.2-45.2,67.8-67.8c5.4-5.4-3-13.8-8.4-8.4c-22.6,22.6-45.2,45.2-67.8,67.8
		C223,473.8,231.4,482.2,236.8,476.8L236.8,476.8z"/>
	<path class="st1" d="M275.2,481.6c26.7-26.7,53.4-53.4,80.1-80c5.4-5.4-3-13.8-8.4-8.4c-26.7,26.7-53.4,53.4-80.1,80
		C261.3,478.6,269.8,487,275.2,481.6L275.2,481.6z"/>
	<path class="st1" d="M273.4,515.1c39.5-39.5,79.5-78.5,119-118c5.4-5.4-3-13.8-8.4-8.4c-39.5,39.5-79.5,78.5-119,118
		C259.5,512.1,267.9,520.5,273.4,515.1L273.4,515.1z"/>
	<path class="st1" d="M272,554.4c56.9-56.9,113.9-113.9,170.8-170.8c5.4-5.4-3-13.8-8.4-8.4C377.4,432.1,320.5,489,263.5,546
		C258.1,551.4,266.5,559.8,272,554.4L272,554.4z"/>
	<path class="st1" d="M307,555.1c17.5-18.5,35.5-36.4,54.1-53.8c5.6-5.3-2.8-13.7-8.4-8.4c-18.6,17.4-36.6,35.4-54.1,53.8
		C293.3,552.3,301.7,560.7,307,555.1L307,555.1z"/>
	<path class="st1" d="M340.6,555.2c9.3-9.3,18.5-18.5,27.8-27.8c5.4-5.4-3-13.8-8.4-8.4c-9.3,9.3-18.5,18.5-27.8,27.8
		C326.8,552.2,335.2,560.6,340.6,555.2L340.6,555.2z"/>
	<path class="st1" d="M377.5,479.3c31.5-31.4,63.1-62.8,94.6-94.2c5.4-5.4-3-13.8-8.4-8.4c-31.5,31.4-63.1,62.8-94.6,94.2
		C363.6,476.3,372,484.7,377.5,479.3L377.5,479.3z"/>
	<path class="st1" d="M418.2,472.6c39.6-39.6,79.1-79.2,118.7-118.9c5.4-5.4-2.9-13.7-8.4-8.4c-1.6,1.5-3.1,3-4.7,4.5
		c2.8,2.8,5.6,5.6,8.4,8.4c5.1-4.9,10.1-9.8,15.2-14.7c5.5-5.3-2.9-13.8-8.4-8.4c-5.1,4.9-10.1,9.8-15.2,14.7
		c-5.5,5.3,2.9,13.7,8.4,8.4c1.6-1.5,3.1-3,4.7-4.5c-2.8-2.8-5.6-5.6-8.4-8.4c-39.6,39.6-79.1,79.2-118.7,118.9
		C404.3,469.6,412.8,478,418.2,472.6L418.2,472.6z"/>
	<path class="st1" d="M466.3,458.6c34.1-34,68.1-68.1,102.2-102.1c5.4-5.4-3-13.8-8.4-8.4c-34.1,34-68.1,68.1-102.2,102.1
		C452.5,455.6,460.9,464.1,466.3,458.6L466.3,458.6z"/>
	<path class="st1" d="M538.4,422.8c18.6-19.5,37.7-38.6,57.1-57.3c5.5-5.3-2.9-13.7-8.4-8.4c-19.5,18.7-38.5,37.8-57.1,57.3
		C524.7,420,533.1,428.4,538.4,422.8L538.4,422.8z"/>
	<path class="st1" d="M208,211.2c-7.3,7.3-14.5,14.5-21.8,21.8c-5.4,5.4,3,13.8,8.4,8.4c7.3-7.3,14.5-14.5,21.8-21.8
		C221.8,214.2,213.4,205.7,208,211.2L208,211.2z"/>
	<path class="st1" d="M216.9,255c5.4-5.3,10.9-10.5,16.3-15.8c5.5-5.3-2.9-13.7-8.4-8.4c-5.4,5.3-10.9,10.5-16.3,15.8
		C203,251.9,211.4,260.3,216.9,255L216.9,255z"/>
	<path class="st1" d="M239.3,265.9c18.1-18.1,36.2-36.2,54.3-54.3c-2.8-2.8-5.6-5.6-8.4-8.4c-0.7,0.7-1.4,1.4-2.1,2.1
		c-5.4,5.4,3,13.8,8.4,8.4c1.8-1.8,3.7-3.7,5.5-5.5c5.4-5.4-3-13.8-8.4-8.4c-1.8,1.8-3.7,3.7-5.5,5.5c2.8,2.8,5.6,5.6,8.4,8.4
		c0.7-0.7,1.4-1.4,2.1-2.1c5.4-5.4-3-13.8-8.4-8.4c-18.1,18.1-36.2,36.2-54.3,54.3C225.4,262.9,233.8,271.3,239.3,265.9L239.3,265.9
		z"/>
	<path class="st1" d="M264.3,273.5c15.7-15.8,31.3-31.5,47-47.3c5.4-5.4-3-13.9-8.4-8.4c-15.7,15.8-31.3,31.5-47,47.3
		C250.5,270.5,258.9,278.9,264.3,273.5L264.3,273.5z"/>
	<path class="st1" d="M290,285c29-28.9,58-57.8,87.1-86.8c5.4-5.4-3-13.8-8.4-8.4c-29,28.9-58,57.8-87.1,86.8
		C276.1,282,284.5,290.4,290,285L290,285z"/>
	<path class="st1" d="M314.5,295.9c33.6-33.6,67.3-67.2,100.9-100.8c5.4-5.4-3-13.8-8.4-8.4c-33.6,33.6-67.3,67.2-100.9,100.8
		C300.6,292.9,309,301.3,314.5,295.9L314.5,295.9z"/>
	<path class="st1" d="M347.2,303c29.4-29.6,58.8-59.2,88.2-88.9c5.4-5.4-3-13.9-8.4-8.4c-29.4,29.6-58.8,59.2-88.2,88.9
		C333.3,300,341.8,308.4,347.2,303L347.2,303z"/>
	<path class="st1" d="M378.8,310c27.6-27.6,55.2-55.2,82.8-82.8c5.4-5.4-3-13.8-8.4-8.4c-27.6,27.6-55.2,55.2-82.8,82.8
		C364.9,307,373.3,315.5,378.8,310L378.8,310z"/>
	<path class="st1" d="M407.6,318.7c23.3-23.3,46.7-46.7,70-70c5.4-5.4-3-13.8-8.4-8.4c-0.7,0.7-1.5,1.5-2.2,2.2
		c2.8,2.8,5.6,5.6,8.4,8.4c3.2-3.2,6.4-6.4,9.5-9.5c5.4-5.4-3-13.8-8.4-8.4c-3.2,3.2-6.4,6.4-9.5,9.5c-5.4,5.4,3,13.8,8.4,8.4
		c0.7-0.7,1.5-1.5,2.2-2.2c-2.8-2.8-5.6-5.6-8.4-8.4c-23.3,23.3-46.7,46.7-70,70C393.8,315.7,402.2,324.2,407.6,318.7L407.6,318.7z"
		/>
	<path class="st1" d="M445.2,321.9c7-7,13.9-14.1,20.9-21.1c5.4-5.5-3-13.9-8.4-8.4c-7,7-13.9,14.1-20.9,21.1
		C431.3,319,439.8,327.4,445.2,321.9L445.2,321.9z"/>
	<path class="st1" d="M473.6,286.6c13.1-13.1,26.2-26.2,39.2-39.2c5.4-5.4-3-13.8-8.4-8.4c-13.1,13.1-26.2,26.2-39.2,39.2
		C459.7,283.6,468.1,292,473.6,286.6L473.6,286.6z"/>
	<path class="st1" d="M404.7,102.5c-7.1,7.1-14.3,14.3-21.4,21.4c-5.4,5.4,3,13.8,8.4,8.4c7.1-7.1,14.3-14.3,21.4-21.4
		C418.5,105.5,410.1,97.1,404.7,102.5L404.7,102.5z"/>
	<path class="st1" d="M382.9,91.3c-7.3,7.3-14.5,14.5-21.8,21.8c-5.4,5.4,3,13.8,8.4,8.4c7.3-7.3,14.5-14.5,21.8-21.8
		C396.7,94.3,388.3,85.9,382.9,91.3L382.9,91.3z"/>
	<path class="st1" d="M366.1,77.4c-8.4,8.5-16.9,17-25.3,25.5c-5.4,5.4,3,13.9,8.4,8.4c8.4-8.5,16.9-17,25.3-25.5
		C379.9,80.4,371.5,71.9,366.1,77.4L366.1,77.4z"/>
	<path class="st1" d="M346.5,60c-11.1,11.1-22.3,22.3-33.4,33.4c-5.4,5.4,3,13.9,8.4,8.4c11.1-11.1,22.3-22.3,33.4-33.4
		C360.3,63,351.9,54.5,346.5,60L346.5,60z"/>
	<path class="st1" d="M331.3,36.5c-14.4,14.4-28.8,28.8-43.2,43.3c-5.4,5.4,3,13.9,8.4,8.4c14.4-14.4,28.8-28.8,43.2-43.3
		C345.1,39.4,336.7,31,331.3,36.5L331.3,36.5z"/>
	<path class="st1" d="M317.8,17.5c-14.9,14.9-29.8,29.8-44.7,44.7c-5.4,5.4,3,13.8,8.4,8.4c14.9-14.9,29.8-29.8,44.7-44.7
		C331.7,20.5,323.3,12.1,317.8,17.5L317.8,17.5z"/>
	<g>
		<path class="st2" d="M194.9,207.2l10.6-9.3c19.6-17.2,35.6-38,50.2-58.3c-22.3-4-38.7-17.4-53.7-31l-9.4-8.6l12.7-0.1
			c21.6-0.2,39.7-8.5,56.9-26l3-3l6.6,4.6c4.2,2.9,8.5,5.9,12.8,8.8l6.9,4.6l6.8,4.3c15.2,9.6,28.9,17.5,42,24.1l6.1,3l6.6,3
			c5.8,2.6,11.8,5.1,18.5,7.6l21.2,7.9l-14.3,1.1c6.3,8.8,13.1,18,20.4,26.9l4.7,5.7l-7.1,2.2C339,192.5,269,204.5,208.9,206.7
			L194.9,207.2z M217.5,109c13.3,11.1,28.2,20.5,47.4,21.7l9,0.5l-5.2,7.3C255,158,240.1,178.2,222.1,196
			c53.5-3.2,113.4-13.6,164.1-28.7c-7.4-9.4-14.2-18.9-20.6-27.9c-3.3-1.3-6.5-2.5-9.6-3.8c-0.3,1.9-0.8,3.7-1.5,5.6
			c-1.9,4.7-5,8.7-8.9,11.1c-4.3,2.7-9.2,3.4-13.4,1.7c-3.4-1.3-6.1-4.1-7.7-7.7c-2.1-5-2.1-11.1,0.2-16.9c1-2.5,2.3-4.8,4-6.7
			c-9.4-4.9-19.1-10.5-29.4-16.9c-0.2,0.6-0.4,1.2-0.6,1.8c-2.3,5.8-6.4,10.3-11.4,12.5c-3.6,1.6-7.5,1.7-10.9,0.4
			c-8.3-3.3-11.6-14.1-7.5-24.6c1-2.6,2.5-5,4.3-7.1c-2.4-1.6-4.8-3.3-7.1-4.9C251.5,98,235.4,106.3,217.5,109z M344.5,124.2
			l-4.4,2.1c-2.5,1.2-4.7,3.7-5.9,6.9c-1.3,3.3-1.4,6.7-0.4,9.2c0.4,0.8,1,1.9,2.2,2.4c1.6,0.6,3.4-0.2,4.3-0.8
			c2.1-1.3,3.9-3.6,5-6.4c1.1-2.8,1.4-5.9,0.7-8.3L344.5,124.2z M290,89.8l-6,3.1c-2.4,1.2-4.4,3.7-5.6,6.7
			c-2.2,5.5-0.8,10.6,1.8,11.6c1.1,0.5,2.4,0.1,3.2-0.2c2.5-1.1,4.8-3.7,6.1-7c0.8-2.1,1.2-4.2,1-6.2L290,89.8z"/>
		<path class="st2" d="M382.4,558.4H251.3l20.1-75.3c-45.4-4.3-88.1-15.4-127-32.8c-44.5-19.9-83.1-47.8-114.9-83l-16.1-17.8
			l21.8,9.9c19.9,9,43.8,16.6,71.1,22.7l6.6,1.5l-3.4,5.9c-1.1,2-1.7,4.4-1.7,6.9c0,6,3.2,10.1,6,10.1c2.8,0,6-4.2,6-10.1
			c0-1.4-0.2-2.8-0.6-4.2l-2.2-7.7l7.9,1.5c29.4,5.5,61.5,9.1,95.3,10.7l8.2,0.4l8.6,0.2c9.5,0.3,17.4,0.4,24.7,0.4
			c26.8,0,53.4-1.3,79.1-3.8l8.7-0.9l-3.7,7.9c-0.8,1.8-1.3,3.8-1.3,6c0,6,3.2,10.1,6,10.1s6-4.2,6-10.1c0-2.7-0.7-5.3-2-7.3
			l-4.3-6.7l7.9-1c41.7-5.2,77.3-13.6,102.9-24.4c0.3-0.1,0.6-0.3,0.8-0.4c0.4-0.2,0.7-0.3,1.1-0.5l8.3-3.6l-1.4,9
			c-0.1,0.9-0.2,1.7-0.2,2.5c0,6,3.1,10.1,6,10.1s6-4.2,6-10.1c0-3.4-1.1-6.6-3-8.5l-4.3-4.5l5.4-3.2c15.1-9,24.7-19.1,28.3-30.1
			l1.9-5.7l5.2,2.8c29.2,15.6,59.9,23.4,94,23.8l9,0.1l-4.9,7.6c-42.1,65.8-140.3,115-251.3,126.2L382.4,558.4z M264.4,548.4h105
			l-19.9-74.4l5.9-0.5c106.1-9.3,200.8-54,244.6-114.7c-30.2-1.5-58-8.8-84.5-22.2c-4.8,10-13.5,19.2-26,27.3
			c1.5,3.1,2.3,6.7,2.3,10.4c0,11.3-7,20.1-16,20.1c-7.8,0-14.1-6.7-15.6-15.9c-24.6,9.7-56.9,17.3-94.2,22.3
			c0.5,1.9,0.7,3.8,0.7,5.9c0,11.3-7,20.1-16,20.1s-16-8.8-16-20.1c0-0.8,0-1.6,0.1-2.4c-23.8,2.1-48.3,3.2-73,3.2
			c-5.6,0-11.4-0.1-17.9-0.2c0.2,1.3,0.3,2.7,0.3,4c0,11.3-7,20.1-16,20.1c-9,0-16-8.8-16-20.1c0-1.8,0.2-3.6,0.5-5.3
			c-29.2-1.7-57.1-4.8-83-9.3c-0.2,11-7.2,19.6-16,19.6c-9,0-16-8.8-16-20.1c0-2,0.2-3.9,0.7-5.8c-16.4-3.8-31.6-8.2-45.4-13.2
			c27.5,26.3,59.4,47.8,95.3,63.8c39.6,17.8,83.3,28.7,129.7,32.5l6,0.5L264.4,548.4z M228.6,397.4l-4.3,6.8c-1.3,2-2,4.6-2,7.2
			c0,5.8,3.2,10.1,6,10.1c2.8,0,6-4.3,6-10.1c0-2.5-0.6-4.8-1.7-6.8L228.6,397.4z"/>
		<path class="st2" d="M389.1,136.6l-1.6-0.5c-44.1-13.5-82.6-37.9-117.7-62.2l-4.5-3.2l3.6-4.2c6.8-7.9,12.6-16.1,18.2-24.1
			c9.6-13.6,17.8-25.3,27.5-30.2l2.3-1.1l2.3,1.1c9.7,4.9,18,16.6,27.5,30.2c17.9,25.4,40.2,57,81.8,57.5l12.7,0.1l-9.4,8.6
			c-11.8,10.7-25,21.5-41.1,27.4L389.1,136.6z M280,68.8c32.7,22.5,68.5,44.6,108.8,57.2c10.1-4,19.1-10.2,27.4-17.1
			c-39-5.9-61.2-37.3-77.7-60.7c-7.9-11.2-14.8-21-21.6-25.7c-6.8,4.6-13.7,14.5-21.6,25.7C290.7,54.7,285.7,61.9,280,68.8z"/>
		<path class="st2" d="M261.8,397.5c-3,0-6.1,0-9.2,0c-87.9-0.9-167.8-15.3-219.4-39.3l-17.9-8.4l19.7-1.2
			c48.7-2.9,91.7-21.8,131.4-57.9c-23.5-11.4-43.8-28.3-62.3-45.2l-9.4-8.6l12.7-0.1c17.6-0.2,34.5-3.3,50.2-9.4l2.6-1l2.2,1.7
			c9.2,7.1,19.4,14,30.2,20.5l7.5,4.4l0,0l7.1,3.8c17.4,9.3,36.7,18,57.3,25.8l7.3,2.7l7.7,2.7c21.9,7.6,45.1,14.3,69.1,19.9
			l7.3,1.7l-4.4,6.1c-0.9,1.2-1.5,2.4-2,3.6c-1.2,3.3-1.3,6.8-0.2,9.2c0.4,0.8,1.1,1.9,2.2,2.3c1.6,0.6,3.4-0.3,4.3-0.9
			c2-1.3,3.8-3.7,4.9-6.5c0.8-2,1.1-4.1,0.9-6.1l-0.5-6.6l6.5,1.3c27.1,5.6,54.5,9.7,81.6,12.2l7.6,0.7l-3.7,6.7
			c-0.5,0.8-0.8,1.6-1.1,2.2c-2.1,5.6-0.6,10.6,2,11.6c2.6,1,7.1-2,9.2-7.4c0.8-2.2,1.1-4.5,0.9-6.7l-0.8-6l6,0.4
			c10.2,0.7,20.6,1.1,31,1.2l8.5,0.1l-4.3,7.4c-7.1,12.3-21.8,23.2-43.7,32.4C415.7,386.2,341.8,397.5,261.8,397.5z M55.3,356.5
			c50.1,19,120.6,30.1,197.4,30.9c3,0,6.1,0,9.1,0c78.7,0,151.1-10.9,195.3-29.6l0,0c14.9-6.3,26.2-13.4,33.4-21
			c-5.5-0.2-11-0.4-16.4-0.7c-0.2,1.9-0.7,3.7-1.4,5.5c-4,10.6-13.7,16.4-22,13.2c-7.5-2.9-11.1-11.8-8.8-21.3
			c-23.4-2.4-47.1-6-70.5-10.6c-0.3,1.4-0.7,2.7-1.2,4c-1.8,4.8-4.9,8.8-8.7,11.3c-4.3,2.8-9.1,3.5-13.3,1.9c-3.4-1.3-6.2-4-7.8-7.6
			c-2.2-4.8-2.2-10.8-0.2-16.5c-19.7-4.8-38.9-10.3-57.2-16.4c-0.4,2.3-1.2,4.7-2.3,6.9c-5.1,10.1-15.4,14.8-23.4,10.7
			c-4-2-6.8-6.1-7.6-11.1c-0.7-4.5,0.1-9.5,2.5-14c0.5-1.1,1.1-2.1,1.8-3c-16-6.3-31.2-13.1-45.3-20.4c-0.6,1.7-1.4,3.3-2.4,4.9
			c-6,9.5-16.7,13.3-24.3,8.5c-3.8-2.4-6.2-6.7-6.5-11.8c-0.3-4.6,1-9.5,3.8-13.8c0.7-1.1,1.5-2.2,2.4-3.2
			c-8.1-5.1-15.8-10.3-23-15.8c-12.3,4.5-25.3,7.3-38.7,8.4c17.2,15.1,36.1,29.4,57.4,38.4l7,3l-5.5,5.3
			C141.3,328.8,100.7,349.7,55.3,356.5z M271.7,287.4l-6.1,4c-1.9,1.3-3.5,3.1-4.6,5.3c-1.3,2.6-1.9,5.5-1.5,7.9
			c0.2,1.1,0.7,3,2.2,3.8c2.5,1.3,7.3-1.2,9.9-6.3c1.4-2.8,1.9-5.8,1.4-8.3L271.7,287.4z M200,253.1l-7.4,4.1
			c-1.9,1.1-3.7,2.7-5,4.8c-1.6,2.5-2.4,5.3-2.2,7.8c0.1,1.1,0.4,3.1,1.9,4c2.4,1.5,7.4-0.5,10.5-5.4c1.4-2.3,2.2-4.8,2.2-7.2V253.1
			z"/>
		<path class="st2" d="M517.5,327.1l-17.8-0.3c-56.1-0.9-118.7-9.9-176.3-25.5c-63.7-17.3-117.6-41.4-155.9-69.9l-6.6-4.9l7.5-3.6
			c8.3-4,16.5-8.9,24.4-14.7l1.3-0.9l1.6,0c10.5-0.1,20.4-0.5,30.1-1.1l7.4-0.5l-2.3,7c-0.7,2.1-0.8,4.4-0.4,6.8
			c0.6,3.5,2.3,6.5,4.6,8c0.7,0.5,1.9,1.1,3.1,0.9c2.8-0.5,5.1-5.3,4.1-11c-0.3-1.8-1-3.5-2-5.1l-4.2-6.9l8-0.7
			c20.1-1.8,40.8-4.6,61.4-8.2l7.4-1.3l-1.7,7.3c-0.4,1.9-0.5,3.8-0.1,5.8c1.1,5.9,4.9,9.4,7.7,8.9c1.7-0.3,2.7-2,3.2-3
			c1.1-2.2,1.4-5.1,0.8-8c-0.4-2-1.1-3.8-2.2-5.4l-4.2-6.2l7.4-1.4c17.1-3.4,33.8-7.2,49.5-11.4l8-2.1l-1.8,8.1
			c-0.4,1.9-0.5,3.8-0.1,5.7c0.6,3.5,2.3,6.5,4.6,8c0.7,0.5,1.9,1.1,3.1,0.9c2.8-0.5,5.1-5.2,4.1-11c-0.6-3.1-1.9-5.2-2.9-6.4
			l-4.8-5.8l7.3-2.2c3.5-1.1,6.7-2,9.8-3l3.1-1l2.2,2.5c36.3,41.5,74.6,61.1,120.5,61.6l12.7,0.1l-9.4,8.6
			c-18.5,16.8-38.8,33.8-62.3,45.2c11.4,10.4,23.2,19.4,35.2,27L517.5,327.1z M180,228.1c36.8,25.7,87.1,47.6,146,63.5
			c51,13.8,106,22.5,156.8,24.7c-9.5-7-18.9-14.9-27.9-23.5l-5.5-5.3l7-3c21.3-9,40.1-23.3,57.4-38.4
			c-55.2-4.8-90.7-36.5-113.3-61.9c-0.3,0.1-0.5,0.2-0.8,0.3c0.6,1.6,1.1,3.2,1.4,4.9c2,11.1-3.3,21-12.1,22.6
			c-3.6,0.6-7.3-0.2-10.6-2.5c-4.4-3.1-7.6-8.4-8.7-14.5c-0.1-0.7-0.2-1.3-0.3-2c-12.1,3.1-24.6,6-37.3,8.6c0.3,0.9,0.5,1.8,0.7,2.8
			c0.9,5,0.3,10-1.7,14.2c-2.2,4.6-6,7.7-10.5,8.5c-8.8,1.6-17.3-5.9-19.3-17c-0.2-0.9-0.3-1.8-0.3-2.7c-16.5,2.7-33,4.9-49.2,6.6
			c0.1,0.5,0.2,1.1,0.3,1.6c2,11.1-3.3,21.1-12.1,22.7c-3.6,0.7-7.3-0.2-10.6-2.5c-4.4-3.1-7.6-8.4-8.7-14.5
			c-0.3-1.6-0.4-3.2-0.4-4.8c-7.4,0.4-14.9,0.6-22.8,0.8C191.7,221.2,185.9,224.9,180,228.1z"/>
	</g>
</g>
</svg>
